<?xml version="1.0" encoding="utf-8"?>
<!-- Generator: Adobe Illustrator 28.3.0, SVG Export Plug-In . SVG Version: 6.00 Build 0)  -->
<svg version="1.1" id="Layer_1" xmlns="http://www.w3.org/2000/svg" xmlns:xlink="http://www.w3.org/1999/xlink" x="0px" y="0px"
	 viewBox="0 0 807.87 198.43" style="enable-background:new 0 0 807.87 198.43;" xml:space="preserve">
<g>
	<path d="M426.83,126.13h5.28c3.99,0,7.28,3.13,7.28,7.16s-3.31,7.16-7.28,7.16h-5.28V126.13z M430.55,137.3h0.84
		c2.22,0,4.12-1.22,4.12-4.01c0-2.56-1.69-4.01-4.08-4.01h-0.87V137.3z"/>
	<path d="M444.84,129.28v2.39h4.2v3.15h-4.2v2.47h4.43v3.15h-8.15v-14.32h8.15v3.15H444.84z"/>
	<path d="M451.57,126.13h5.7c3.08,0,5.21,1.42,5.21,4.71c0,3.38-1.82,4.86-5.07,4.86h-2.11v4.75h-3.72V126.13z M455.29,132.7h0.63
		c1.35,0,2.68,0,2.68-1.75c0-1.8-1.24-1.82-2.68-1.82h-0.63V132.7z"/>
	<path d="M466.37,137.97l-0.99,2.49h-3.95l5.51-14.32H471l5.39,14.32h-3.97l-0.93-2.49H466.37z M468.97,130.56h-0.04l-1.54,4.56h3.1
		L468.97,130.56z"/>
	<path d="M489.47,140.45h-4.63l-3.51-5.51h-0.04v5.51h-3.72v-14.32h5.57c2.83,0,4.98,1.35,4.98,4.41c0,1.98-1.1,3.69-3.13,4.05
		L489.47,140.45z M481.28,132.55h0.36c1.22,0,2.58-0.23,2.58-1.79s-1.37-1.79-2.58-1.79h-0.36V132.55z"/>
	<path d="M496.18,140.45h-3.72v-11.17h-3.08v-3.15h9.88v3.15h-3.08V140.45z"/>
	<path d="M503.11,137.97l-0.99,2.49h-3.95l5.51-14.32h4.07l5.39,14.32h-3.97l-0.93-2.49H503.11z M505.71,130.56h-0.04l-1.54,4.56
		h3.1L505.71,130.56z"/>
	<path d="M515.88,126.13h3.67l2.91,7.66l3.08-7.66h3.7l2.17,14.32h-3.72l-1.04-8.24h-0.04l-3.44,8.24h-1.48l-3.29-8.24h-0.04
		l-1.2,8.24h-3.7L515.88,126.13z"/>
	<path d="M536.7,129.28v2.39h4.2v3.15h-4.2v2.47h4.43v3.15h-8.15v-14.32h8.15v3.15H536.7z"/>
	<path d="M543.43,126.13h3.72l6.82,8.76h0.04v-8.76h3.72v14.32h-3.72l-6.82-8.78h-0.04v8.78h-3.72V126.13z"/>
	<path d="M565.87,140.45h-3.72v-11.17h-3.08v-3.15h9.88v3.15h-3.08V140.45z"/>
	<path d="M585.42,133.03c0,4.64-3.33,7.9-7.92,7.9c-4.6,0-7.92-3.27-7.92-7.9c0-4.33,3.8-7.37,7.92-7.37
		C581.62,125.66,585.42,128.69,585.42,133.03z M573.45,133.05c0,2.47,1.82,4.27,4.05,4.27s4.05-1.8,4.05-4.27
		c0-1.98-1.82-3.78-4.05-3.78S573.45,131.07,573.45,133.05z"/>
	<path d="M593.67,126.13h5.28c3.99,0,7.28,3.13,7.28,7.16s-3.31,7.16-7.28,7.16h-5.28V126.13z M597.39,137.3h0.84
		c2.22,0,4.12-1.22,4.12-4.01c0-2.56-1.69-4.01-4.08-4.01h-0.87V137.3z"/>
	<path d="M611.68,129.28v2.39h4.2v3.15h-4.2v2.47h4.43v3.15h-8.15v-14.32h8.15v3.15H611.68z"/>
	<path d="M628.64,140.45h-3.72v-14.32h3.72V140.45z"/>
	<path d="M631.08,126.13h3.72l6.82,8.76h0.04v-8.76h3.72v14.32h-3.72l-6.82-8.78h-0.04v8.78h-3.72V126.13z"/>
	<path d="M651.54,129.28v2.39h4.08v3.15h-4.08v5.62h-3.72v-14.32h8.23v3.15H651.54z"/>
	<path d="M673.24,133.03c0,4.64-3.33,7.9-7.92,7.9c-4.6,0-7.92-3.27-7.92-7.9c0-4.33,3.8-7.37,7.92-7.37
		C669.44,125.66,673.24,128.69,673.24,133.03z M661.27,133.05c0,2.47,1.82,4.27,4.05,4.27s4.05-1.8,4.05-4.27
		c0-1.98-1.82-3.78-4.05-3.78S661.27,131.07,661.27,133.05z"/>
	<path d="M686.88,140.45h-4.63l-3.51-5.51h-0.04v5.51h-3.72v-14.32h5.57c2.83,0,4.98,1.35,4.98,4.41c0,1.98-1.1,3.69-3.13,4.05
		L686.88,140.45z M678.69,132.55h0.36c1.22,0,2.58-0.23,2.58-1.79s-1.37-1.79-2.58-1.79h-0.36V132.55z"/>
	<path d="M689.46,126.13h3.67l2.91,7.66l3.08-7.66h3.7l2.17,14.32h-3.72l-1.04-8.24h-0.04l-3.44,8.24h-1.48l-3.29-8.24h-0.04
		l-1.2,8.24h-3.7L689.46,126.13z"/>
	<path d="M710.21,137.97l-0.99,2.49h-3.95l5.51-14.32h4.07l5.39,14.32h-3.97l-0.93-2.49H710.21z M712.3,125.26l-1.54-1.12l2.68-3.27
		l2.11,1.52L712.3,125.26z M712.81,130.56h-0.04l-1.54,4.56h3.1L712.81,130.56z"/>
	<path d="M725.96,140.45h-3.72v-11.17h-3.08v-3.15h9.88v3.15h-3.08V140.45z"/>
	<path d="M734.11,140.45h-3.72v-14.32h3.72V140.45z"/>
	<path d="M746.79,130.94c-0.76-1.03-1.99-1.58-3.27-1.58c-2.28,0-3.82,1.75-3.82,3.97c0,2.26,1.56,3.89,3.88,3.89
		c1.22,0,2.43-0.59,3.21-1.52v4.46c-1.23,0.38-2.13,0.67-3.29,0.67c-2,0-3.89-0.76-5.38-2.11c-1.58-1.42-2.3-3.29-2.3-5.41
		c0-1.96,0.74-3.84,2.11-5.24c1.41-1.44,3.44-2.32,5.45-2.32c1.2,0,2.3,0.27,3.4,0.72V130.94z"/>
	<path d="M752.73,137.97l-0.99,2.49h-3.95l5.51-14.32h4.07l5.39,14.32h-3.97l-0.93-2.49H752.73z M755.34,130.56h-0.04l-1.54,4.56
		h3.1L755.34,130.56z"/>
</g>
<g>
	<path d="M153.66,29.62c0.13,0,0.23-0.1,0.23-0.23c0-0.13-0.1-0.23-0.23-0.23c-0.13,0-0.23,0.1-0.23,0.23
		C153.43,29.52,153.53,29.62,153.66,29.62z"/>
	<path d="M160.66,29.85c0.26,0,0.47-0.21,0.47-0.47s-0.21-0.47-0.47-0.47s-0.47,0.21-0.47,0.47S160.4,29.85,160.66,29.85z"/>
	<path d="M167.65,30.05c0.36,0,0.66-0.3,0.66-0.66c0-0.36-0.3-0.66-0.66-0.66c-0.36,0-0.66,0.3-0.66,0.66
		C166.99,29.75,167.29,30.05,167.65,30.05z"/>
	<path d="M174.65,30.13c0.41,0,0.74-0.33,0.74-0.74c0-0.41-0.33-0.74-0.74-0.74c-0.41,0-0.74,0.33-0.74,0.74
		C173.91,29.8,174.24,30.13,174.65,30.13z"/>
	<path d="M181.64,30.17c0.43,0,0.78-0.35,0.78-0.78c0-0.43-0.35-0.78-0.78-0.78c-0.43,0-0.78,0.35-0.78,0.78
		C180.86,29.82,181.21,30.17,181.64,30.17z"/>
	<path d="M188.64,30.11c0.4,0,0.72-0.32,0.72-0.72c0-0.4-0.32-0.72-0.72-0.72s-0.72,0.32-0.72,0.72
		C187.92,29.79,188.24,30.11,188.64,30.11z"/>
	<path d="M195.63,29.97c0.32,0,0.58-0.26,0.58-0.58c0-0.32-0.26-0.58-0.58-0.58c-0.32,0-0.58,0.26-0.58,0.58
		C195.05,29.71,195.31,29.97,195.63,29.97z"/>
	<path d="M202.62,29.78c0.21,0,0.39-0.17,0.39-0.39c0-0.21-0.17-0.39-0.39-0.39c-0.21,0-0.39,0.17-0.39,0.39
		C202.24,29.6,202.41,29.78,202.62,29.78z"/>
	<path d="M209.75,29.39c0-0.08-0.06-0.14-0.14-0.14c-0.08,0-0.14,0.06-0.14,0.14c0,0.07,0.06,0.14,0.14,0.14
		C209.69,29.53,209.75,29.46,209.75,29.39z"/>
	<path d="M139.86,36.38c0-0.11-0.09-0.19-0.19-0.19c-0.11,0-0.19,0.09-0.19,0.19c0,0.11,0.09,0.19,0.19,0.19
		C139.78,36.58,139.86,36.49,139.86,36.38z"/>
	<path d="M146.67,36.97c0.32,0,0.58-0.26,0.58-0.58c0-0.32-0.26-0.58-0.58-0.58c-0.32,0-0.58,0.26-0.58,0.58
		C146.08,36.71,146.34,36.97,146.67,36.97z"/>
	<path d="M153.66,37.28c0.49,0,0.89-0.4,0.89-0.89c0-0.49-0.4-0.89-0.89-0.89s-0.89,0.4-0.89,0.89
		C152.77,36.88,153.17,37.28,153.66,37.28z"/>
	<path d="M160.66,37.55c0.64,0,1.16-0.52,1.16-1.16c0-0.64-0.52-1.16-1.16-1.16c-0.64,0-1.16,0.52-1.16,1.16
		C159.49,37.03,160.01,37.55,160.66,37.55z"/>
	<path d="M167.65,37.74c0.75,0,1.36-0.61,1.36-1.36c0-0.75-0.61-1.36-1.36-1.36c-0.75,0-1.36,0.61-1.36,1.36
		C166.29,37.13,166.9,37.74,167.65,37.74z"/>
	<path d="M174.65,37.82c0.79,0,1.44-0.64,1.44-1.44c0-0.79-0.64-1.44-1.44-1.44c-0.79,0-1.44,0.64-1.44,1.44
		C173.21,37.18,173.85,37.82,174.65,37.82z"/>
	<path d="M181.64,37.86c0.81,0,1.48-0.66,1.48-1.47c0-0.81-0.66-1.47-1.48-1.47c-0.81,0-1.47,0.66-1.47,1.47
		C180.17,37.2,180.83,37.86,181.64,37.86z"/>
	<path d="M188.64,37.8c0.78,0,1.42-0.63,1.42-1.42c0-0.78-0.63-1.42-1.42-1.42s-1.42,0.63-1.42,1.42
		C187.22,37.17,187.85,37.8,188.64,37.8z"/>
	<path d="M195.63,37.68c0.72,0,1.3-0.58,1.3-1.3c0-0.72-0.58-1.3-1.3-1.3c-0.72,0-1.3,0.58-1.3,1.3
		C194.33,37.1,194.91,37.68,195.63,37.68z"/>
	<path d="M202.62,37.47c0.6,0,1.09-0.49,1.09-1.09c0-0.6-0.49-1.09-1.09-1.09c-0.6,0-1.09,0.49-1.09,1.09
		C201.54,36.98,202.02,37.47,202.62,37.47z"/>
	<path d="M209.62,37.2c0.45,0,0.81-0.37,0.81-0.82c0-0.45-0.37-0.81-0.81-0.81c-0.45,0-0.81,0.36-0.81,0.81
		C208.8,36.83,209.17,37.2,209.62,37.2z"/>
	<path d="M216.61,36.85c0.26,0,0.47-0.21,0.47-0.47s-0.21-0.46-0.47-0.46c-0.26,0-0.47,0.21-0.47,0.46S216.35,36.85,216.61,36.85z"
		/>
	<path d="M223.65,36.38c0-0.02-0.02-0.04-0.04-0.04c-0.02,0-0.04,0.02-0.04,0.04c0,0.02,0.02,0.04,0.04,0.04
		C223.63,36.42,223.65,36.41,223.65,36.38z"/>
	<path d="M132.68,43.71c0.18,0,0.33-0.15,0.33-0.33c0-0.18-0.15-0.33-0.33-0.33c-0.18,0-0.33,0.15-0.33,0.33
		C132.35,43.56,132.49,43.71,132.68,43.71z"/>
	<path d="M139.67,44.19c0.45,0,0.81-0.36,0.81-0.81c0-0.45-0.36-0.81-0.81-0.81c-0.45,0-0.81,0.36-0.81,0.81
		C138.86,43.83,139.22,44.19,139.67,44.19z"/>
	<path d="M146.67,44.58c0.66,0,1.2-0.54,1.2-1.2c0-0.66-0.54-1.2-1.2-1.2c-0.66,0-1.2,0.54-1.2,1.2
		C145.46,44.04,146,44.58,146.67,44.58z"/>
	<path d="M153.66,44.93c0.86,0,1.55-0.69,1.55-1.55c0-0.86-0.69-1.55-1.55-1.55s-1.55,0.69-1.55,1.55
		C152.11,44.24,152.8,44.93,153.66,44.93z"/>
	<circle cx="160.66" cy="43.38" r="1.8"/>
	<path d="M167.65,45.38c1.1,0,2-0.89,2-2c0-1.1-0.89-2-2-2c-1.1,0-2,0.89-2,2C165.65,44.48,166.55,45.38,167.65,45.38z"/>
	<path d="M174.65,45.49c1.17,0,2.11-0.95,2.11-2.11c0-1.17-0.95-2.11-2.11-2.11c-1.17,0-2.11,0.95-2.11,2.11
		C172.53,44.55,173.48,45.49,174.65,45.49z"/>
	<path d="M181.64,45.51c1.18,0,2.13-0.96,2.13-2.13c0-1.18-0.96-2.13-2.13-2.13c-1.18,0-2.13,0.96-2.13,2.13
		C179.51,44.56,180.46,45.51,181.64,45.51z"/>
	<path d="M188.64,45.45c1.15,0,2.07-0.93,2.07-2.08c0-1.15-0.93-2.08-2.07-2.08c-1.15,0-2.08,0.93-2.08,2.08
		C186.56,44.53,187.49,45.45,188.64,45.45z"/>
	<path d="M195.63,45.32c1.07,0,1.94-0.87,1.94-1.94c0-1.07-0.87-1.94-1.94-1.94c-1.07,0-1.94,0.87-1.94,1.94
		C193.69,44.45,194.56,45.32,195.63,45.32z"/>
	<path d="M202.62,45.11c0.95,0,1.73-0.77,1.73-1.73c0-0.95-0.77-1.73-1.73-1.73c-0.95,0-1.73,0.77-1.73,1.73
		C200.9,44.33,201.67,45.11,202.62,45.11z"/>
	<path d="M209.62,44.81c0.79,0,1.44-0.64,1.44-1.44c0-0.79-0.64-1.44-1.44-1.44c-0.79,0-1.44,0.64-1.44,1.44
		C208.18,44.17,208.83,44.81,209.62,44.81z"/>
	<path d="M216.61,44.47c0.6,0,1.09-0.49,1.09-1.09c0-0.6-0.49-1.09-1.09-1.09c-0.6,0-1.09,0.49-1.09,1.09
		C215.53,43.98,216.01,44.47,216.61,44.47z"/>
	<path d="M223.61,44.04c0.36,0,0.66-0.29,0.66-0.66c0-0.36-0.29-0.66-0.66-0.66c-0.36,0-0.66,0.29-0.66,0.66
		C222.95,43.74,223.25,44.04,223.61,44.04z"/>
	<path d="M230.78,43.38c0-0.1-0.08-0.17-0.17-0.17c-0.1,0-0.17,0.08-0.17,0.17c0,0.1,0.08,0.17,0.17,0.17
		C230.7,43.55,230.78,43.48,230.78,43.38z"/>
	<path d="M125.68,50.7c0.18,0,0.33-0.15,0.33-0.33c0-0.18-0.15-0.33-0.33-0.33c-0.18,0-0.33,0.15-0.33,0.33
		C125.35,50.56,125.5,50.7,125.68,50.7z"/>
	<path d="M132.68,51.27c0.49,0,0.89-0.4,0.89-0.89c0-0.49-0.4-0.89-0.89-0.89c-0.49,0-0.89,0.4-0.89,0.89
		C131.78,50.87,132.18,51.27,132.68,51.27z"/>
	<path d="M139.67,51.75c0.76,0,1.38-0.62,1.38-1.38c0-0.76-0.62-1.38-1.38-1.38c-0.76,0-1.38,0.62-1.38,1.38
		C138.29,51.13,138.91,51.75,139.67,51.75z"/>
	<path d="M146.67,52.16c0.99,0,1.78-0.8,1.78-1.78c0-0.98-0.8-1.78-1.78-1.78c-0.99,0-1.78,0.8-1.78,1.78
		C144.88,51.36,145.68,52.16,146.67,52.16z"/>
	<path d="M153.66,52.51c1.18,0,2.13-0.96,2.13-2.13c0-1.18-0.96-2.13-2.13-2.13s-2.13,0.96-2.13,2.13
		C151.53,51.55,152.48,52.51,153.66,52.51z"/>
	<path d="M160.66,52.76c1.32,0,2.39-1.07,2.39-2.39c0-1.32-1.07-2.39-2.39-2.39c-1.32,0-2.39,1.07-2.39,2.39
		C158.27,51.69,159.34,52.76,160.66,52.76z"/>
	<path d="M167.65,52.93c1.41,0,2.56-1.15,2.56-2.56c0-1.41-1.15-2.56-2.56-2.56c-1.41,0-2.56,1.15-2.56,2.56
		C165.09,51.79,166.24,52.93,167.65,52.93z"/>
	<path d="M174.65,53.07c1.49,0,2.7-1.21,2.7-2.7c0-1.49-1.21-2.7-2.7-2.7c-1.49,0-2.7,1.21-2.7,2.7
		C171.95,51.86,173.16,53.07,174.65,53.07z"/>
	<path d="M181.64,53.09c1.5,0,2.72-1.22,2.72-2.72c0-1.5-1.21-2.71-2.72-2.71c-1.5,0-2.72,1.22-2.72,2.71
		C178.92,51.87,180.14,53.09,181.64,53.09z"/>
	<path d="M188.64,53.03c1.47,0,2.66-1.19,2.66-2.66c0-1.47-1.19-2.66-2.66-2.66c-1.47,0-2.66,1.19-2.66,2.66
		C185.98,51.84,187.17,53.03,188.64,53.03z"/>
	<path d="M195.63,52.9c1.39,0,2.52-1.13,2.52-2.52c0-1.39-1.13-2.52-2.52-2.52c-1.39,0-2.52,1.13-2.52,2.52
		C193.11,51.77,194.24,52.9,195.63,52.9z"/>
	<path d="M202.62,52.68c1.27,0,2.31-1.03,2.31-2.31c0-1.27-1.03-2.31-2.31-2.31c-1.27,0-2.31,1.03-2.31,2.31
		C200.32,51.65,201.35,52.68,202.62,52.68z"/>
	<path d="M209.62,52.39c1.11,0,2.02-0.9,2.02-2.02c0-1.11-0.9-2.02-2.02-2.02c-1.11,0-2.02,0.9-2.02,2.02
		C207.6,51.49,208.5,52.39,209.62,52.39z"/>
	<path d="M216.61,52c0.9,0,1.63-0.73,1.63-1.63c0-0.9-0.73-1.63-1.63-1.63c-0.9,0-1.63,0.73-1.63,1.63
		C214.98,51.27,215.71,52,216.61,52z"/>
	<path d="M223.61,51.58c0.66,0,1.2-0.54,1.2-1.2c0-0.66-0.54-1.2-1.2-1.2c-0.66,0-1.2,0.54-1.2,1.2
		C222.41,51.04,222.95,51.58,223.61,51.58z"/>
	<path d="M230.6,51.09c0.4,0,0.72-0.32,0.72-0.72c0-0.4-0.32-0.72-0.72-0.72c-0.4,0-0.72,0.32-0.72,0.72
		C229.89,50.77,230.21,51.09,230.6,51.09z"/>
	<path d="M237.73,50.37c0-0.07-0.06-0.14-0.14-0.14c-0.08,0-0.14,0.06-0.14,0.14c0,0.08,0.06,0.14,0.14,0.14
		C237.67,50.51,237.73,50.45,237.73,50.37z"/>
	<path d="M118.88,57.37c0-0.11-0.09-0.19-0.19-0.19c-0.11,0-0.19,0.09-0.19,0.19c0,0.11,0.09,0.19,0.19,0.19
		C118.79,57.56,118.88,57.48,118.88,57.37z"/>
	<path d="M125.68,58.18c0.45,0,0.81-0.36,0.81-0.81c0-0.45-0.37-0.81-0.81-0.81c-0.45,0-0.82,0.36-0.82,0.81
		C124.87,57.82,125.23,58.18,125.68,58.18z"/>
	<path d="M132.68,58.75c0.76,0,1.38-0.62,1.38-1.38c0-0.76-0.62-1.38-1.38-1.38c-0.76,0-1.38,0.62-1.38,1.38
		C131.3,58.13,131.92,58.75,132.68,58.75z"/>
	<path d="M139.67,59.23c1.03,0,1.86-0.83,1.86-1.86c0-1.03-0.83-1.86-1.86-1.86c-1.03,0-1.86,0.83-1.86,1.86
		C137.81,58.4,138.64,59.23,139.67,59.23z"/>
	<circle cx="146.67" cy="57.37" r="2.29"/>
	<path d="M153.66,60.01c1.46,0,2.64-1.18,2.64-2.64c0-1.46-1.18-2.64-2.64-2.64s-2.64,1.18-2.64,2.64
		C151.02,58.83,152.2,60.01,153.66,60.01z"/>
	<circle cx="160.66" cy="57.37" r="2.89"/>
	<path d="M167.65,60.47c1.71,0,3.1-1.39,3.1-3.1c0-1.71-1.39-3.1-3.1-3.1c-1.71,0-3.1,1.39-3.1,3.1
		C164.55,59.08,165.94,60.47,167.65,60.47z"/>
	<path d="M174.65,60.59c1.78,0,3.22-1.44,3.22-3.22s-1.44-3.22-3.22-3.22c-1.78,0-3.22,1.44-3.22,3.22S172.87,60.59,174.65,60.59z"
		/>
	<path d="M181.64,60.63c1.8,0,3.26-1.46,3.26-3.26s-1.46-3.26-3.26-3.26c-1.8,0-3.26,1.46-3.26,3.26S179.84,60.63,181.64,60.63z"/>
	<path d="M188.64,60.55c1.76,0,3.18-1.42,3.18-3.18c0-1.76-1.42-3.18-3.18-3.18s-3.18,1.42-3.18,3.18
		C185.45,59.13,186.88,60.55,188.64,60.55z"/>
	<path d="M195.63,60.43c1.69,0,3.06-1.37,3.06-3.06c0-1.69-1.37-3.06-3.06-3.06c-1.69,0-3.07,1.37-3.07,3.06
		C192.56,59.06,193.94,60.43,195.63,60.43z"/>
	<path d="M202.62,60.2c1.56,0,2.83-1.27,2.83-2.83c0-1.56-1.27-2.83-2.83-2.83s-2.83,1.27-2.83,2.83
		C199.79,58.93,201.06,60.2,202.62,60.2z"/>
	<path d="M209.62,59.89c1.39,0,2.52-1.13,2.52-2.52c0-1.39-1.13-2.52-2.52-2.52c-1.39,0-2.52,1.13-2.52,2.52
		C207.1,58.76,208.23,59.89,209.62,59.89z"/>
	<path d="M216.61,59.52c1.19,0,2.15-0.96,2.15-2.15c0-1.19-0.96-2.15-2.15-2.15c-1.19,0-2.15,0.96-2.15,2.15
		C214.46,58.56,215.42,59.52,216.61,59.52z"/>
	<path d="M223.61,59.06c0.93,0,1.69-0.76,1.69-1.69c0-0.93-0.76-1.69-1.69-1.69c-0.93,0-1.69,0.76-1.69,1.69
		C221.92,58.3,222.68,59.06,223.61,59.06z"/>
	<path d="M237.6,57.99c0.34,0,0.62-0.28,0.62-0.62c0-0.34-0.28-0.62-0.62-0.62c-0.34,0-0.62,0.28-0.62,0.62
		C236.98,57.71,237.26,57.99,237.6,57.99z"/>
	<path d="M125.68,65.57c0.66,0,1.2-0.54,1.2-1.2c0-0.66-0.54-1.2-1.2-1.2c-0.66,0-1.2,0.54-1.2,1.2
		C124.48,65.03,125.02,65.57,125.68,65.57z"/>
	<path d="M132.68,66.15c0.99,0,1.78-0.8,1.78-1.78c0-0.99-0.8-1.78-1.78-1.78c-0.99,0-1.78,0.8-1.78,1.78
		C130.89,65.35,131.69,66.15,132.68,66.15z"/>
	<path d="M139.67,66.65c1.26,0,2.29-1.02,2.29-2.29c0-1.26-1.02-2.29-2.29-2.29c-1.26,0-2.29,1.02-2.29,2.29
		C137.38,65.63,138.41,66.65,139.67,66.65z"/>
	<path d="M146.67,67.08c1.5,0,2.72-1.22,2.72-2.72c0-1.5-1.22-2.72-2.72-2.72c-1.5,0-2.72,1.22-2.72,2.72
		C143.95,65.86,145.17,67.08,146.67,67.08z"/>
	<path d="M153.66,67.45c1.7,0,3.08-1.38,3.08-3.08c0-1.7-1.38-3.08-3.08-3.08c-1.7,0-3.08,1.38-3.08,3.08
		C150.58,66.07,151.96,67.45,153.66,67.45z"/>
	<path d="M202.62,67.64c1.81,0,3.28-1.47,3.28-3.28c0-1.81-1.47-3.28-3.28-3.28c-1.81,0-3.28,1.47-3.28,3.28
		C199.35,66.17,200.81,67.64,202.62,67.64z"/>
	<path d="M209.62,67.33c1.64,0,2.97-1.33,2.97-2.97c0-1.64-1.33-2.97-2.97-2.97c-1.64,0-2.97,1.33-2.97,2.97
		C206.65,66,207.98,67.33,209.62,67.33z"/>
	<path d="M216.61,66.92c1.41,0,2.56-1.15,2.56-2.56c0-1.41-1.15-2.56-2.56-2.56c-1.41,0-2.56,1.15-2.56,2.56
		C214.05,65.78,215.2,66.92,216.61,66.92z"/>
	<path d="M223.61,66.5c1.18,0,2.13-0.95,2.13-2.13c0-1.18-0.95-2.13-2.13-2.13c-1.18,0-2.13,0.96-2.13,2.13
		C221.48,65.54,222.43,66.5,223.61,66.5z"/>
	<path d="M125.68,72.91c0.86,0,1.55-0.69,1.55-1.55c0-0.86-0.7-1.55-1.55-1.55c-0.86,0-1.55,0.7-1.55,1.55
		C124.13,72.22,124.82,72.91,125.68,72.91z"/>
	<path d="M132.68,73.49c1.18,0,2.13-0.96,2.13-2.13c0-1.18-0.96-2.13-2.13-2.13s-2.13,0.96-2.13,2.13
		C130.54,72.54,131.5,73.49,132.68,73.49z"/>
	<path d="M139.67,74c1.46,0,2.64-1.18,2.64-2.64c0-1.46-1.18-2.64-2.64-2.64c-1.46,0-2.64,1.18-2.64,2.64
		C137.03,72.81,138.21,74,139.67,74z"/>
	<path d="M146.67,74.44c1.7,0,3.08-1.38,3.08-3.08c0-1.7-1.38-3.08-3.08-3.08c-1.7,0-3.08,1.38-3.08,3.08
		C143.58,73.06,144.96,74.44,146.67,74.44z"/>
	<path d="M216.61,74.31c1.63,0,2.95-1.32,2.95-2.95c0-1.63-1.32-2.95-2.95-2.95c-1.63,0-2.95,1.32-2.95,2.95
		C213.66,72.99,214.98,74.31,216.61,74.31z"/>
	<path d="M223.61,73.82c1.36,0,2.46-1.1,2.46-2.46c0-1.36-1.1-2.46-2.46-2.46c-1.36,0-2.46,1.1-2.46,2.46
		C221.15,72.72,222.25,73.82,223.61,73.82z"/>
	<path d="M230.6,73.3c1.07,0,1.94-0.87,1.94-1.94c0-1.07-0.87-1.94-1.94-1.94s-1.94,0.87-1.94,1.94
		C228.67,72.43,229.53,73.3,230.6,73.3z"/>
	<path d="M125.68,80.16c1,0,1.8-0.81,1.8-1.8c0-1-0.81-1.8-1.8-1.8c-1,0-1.8,0.81-1.8,1.8C123.88,79.35,124.68,80.16,125.68,80.16z"
		/>
	<path d="M132.68,80.74c1.32,0,2.39-1.07,2.39-2.39c0-1.32-1.07-2.39-2.39-2.39c-1.32,0-2.39,1.07-2.39,2.39
		C130.29,79.67,131.36,80.74,132.68,80.74z"/>
	<path d="M139.67,81.24c1.6,0,2.89-1.29,2.89-2.89c0-1.6-1.29-2.89-2.89-2.89c-1.6,0-2.89,1.29-2.89,2.89
		C136.78,79.95,138.07,81.24,139.67,81.24z"/>
	<path d="M216.61,81.57c1.78,0,3.22-1.44,3.22-3.22c0-1.78-1.44-3.22-3.22-3.22c-1.78,0-3.22,1.44-3.22,3.22
		C213.39,80.13,214.83,81.57,216.61,81.57z"/>
	<path d="M223.61,81.09c1.51,0,2.73-1.22,2.73-2.73c0-1.51-1.22-2.73-2.73-2.73c-1.51,0-2.73,1.22-2.73,2.73
		C220.88,79.86,222.1,81.09,223.61,81.09z"/>
	<path d="M230.6,80.56c1.22,0,2.21-0.99,2.21-2.21c0-1.22-0.99-2.21-2.21-2.21c-1.22,0-2.21,0.99-2.21,2.21
		C228.39,79.57,229.38,80.56,230.6,80.56z"/>
	<path d="M125.68,87.35c1.1,0,2-0.89,2-2c0-1.1-0.89-2-2-2c-1.1,0-2,0.89-2,2C123.68,86.45,124.58,87.35,125.68,87.35z"/>
	<path d="M132.68,87.91c1.41,0,2.56-1.15,2.56-2.56c0-1.41-1.15-2.56-2.56-2.56c-1.41,0-2.56,1.15-2.56,2.56
		C130.12,86.76,131.26,87.91,132.68,87.91z"/>
	<path d="M139.67,88.45c1.71,0,3.1-1.39,3.1-3.1s-1.39-3.1-3.1-3.1c-1.71,0-3.1,1.39-3.1,3.1S137.96,88.45,139.67,88.45z"/>
	<path d="M223.61,88.3c1.63,0,2.95-1.32,2.95-2.95c0-1.63-1.32-2.95-2.95-2.95c-1.63,0-2.95,1.32-2.95,2.95
		C220.66,86.98,221.98,88.3,223.61,88.3z"/>
	<path d="M230.6,87.73c1.32,0,2.39-1.07,2.39-2.39c0-1.32-1.07-2.39-2.39-2.39c-1.32,0-2.39,1.07-2.39,2.39
		C228.22,86.67,229.29,87.73,230.6,87.73z"/>
	<path d="M237.6,87.13c0.99,0,1.78-0.8,1.78-1.78c0-0.99-0.8-1.78-1.78-1.78c-0.98,0-1.78,0.8-1.78,1.78
		C235.81,86.33,236.61,87.13,237.6,87.13z"/>
	<circle cx="125.68" cy="92.34" r="2.11"/>
	<path d="M132.68,95.04c1.49,0,2.7-1.21,2.7-2.7s-1.21-2.7-2.7-2.7c-1.49,0-2.7,1.21-2.7,2.7S131.19,95.04,132.68,95.04z"/>
	<path d="M139.67,95.56c1.78,0,3.22-1.44,3.22-3.22c0-1.78-1.44-3.22-3.22-3.22s-3.22,1.44-3.22,3.22
		C136.45,94.12,137.89,95.56,139.67,95.56z"/>
	<path d="M223.61,95.41c1.69,0,3.06-1.37,3.06-3.06c0-1.69-1.37-3.06-3.06-3.06c-1.69,0-3.06,1.37-3.06,3.06
		C220.55,94.04,221.92,95.41,223.61,95.41z"/>
	<circle cx="230.6" cy="92.34" r="2.48"/>
	<path d="M237.6,94.22c1.04,0,1.88-0.84,1.88-1.88c0-1.04-0.84-1.88-1.88-1.88c-1.04,0-1.88,0.84-1.88,1.88
		C235.72,93.38,236.56,94.22,237.6,94.22z"/>
	<path d="M125.68,97.2c-1.18,0-2.13,0.96-2.13,2.13c0,1.18,0.95,2.13,2.13,2.13c1.18,0,2.13-0.95,2.13-2.13
		C127.81,98.16,126.86,97.2,125.68,97.2z"/>
	<path d="M132.68,96.62c-1.5,0-2.72,1.22-2.72,2.72c0,1.5,1.22,2.72,2.72,2.72c1.5,0,2.72-1.22,2.72-2.72
		C135.39,97.84,134.18,96.62,132.68,96.62z"/>
	<path d="M139.67,96.08c-1.8,0-3.26,1.46-3.26,3.26c0,1.8,1.46,3.26,3.26,3.26c1.8,0,3.26-1.46,3.26-3.26
		C142.93,97.54,141.47,96.08,139.67,96.08z"/>
	<path d="M220.18,99.34c0-1.76-1.28-3.22-2.96-3.51c1.67-0.29,2.94-1.74,2.94-3.49c0-1.96-1.59-3.55-3.55-3.55
		c-1.49,0-2.76,0.92-3.28,2.21c-0.36-0.98-1.08-1.78-2.02-2.23c1-0.5,1.75-1.41,2.03-2.52c0.4,1.44,1.71,2.5,3.27,2.5
		c1.89,0,3.41-1.53,3.41-3.41s-1.53-3.41-3.41-3.41c-1.57,0-2.87,1.06-3.27,2.5c-0.31-1.26-1.24-2.27-2.45-2.69
		c1.37-0.52,2.36-1.83,2.36-3.39c0-2-1.62-3.63-3.63-3.63c-1.49,0-2.76,0.9-3.32,2.18c-0.4-1-1.18-1.8-2.17-2.21
		c1.26-0.57,2.15-1.83,2.16-3.31c0.02,1.83,1.5,3.3,3.33,3.3c1.84,0,3.34-1.49,3.34-3.34c0-1.84-1.49-3.34-3.34-3.34
		c-1.83,0-3.31,1.48-3.33,3.3c-0.02-2.01-1.65-3.63-3.66-3.63c-1.52,0-2.82,0.92-3.38,2.23c-0.43-1.08-1.33-1.91-2.45-2.27
		c1.36-0.48,2.34-1.77,2.34-3.3c0-1.94-1.57-3.51-3.51-3.51c-1.67,0-3.06,1.17-3.42,2.73c-0.36-1.65-1.82-2.88-3.58-2.88
		c-1.62,0-2.99,1.06-3.47,2.53c-0.48-1.5-1.87-2.59-3.53-2.59c-1.63,0-3,1.06-3.51,2.52c-0.5-1.45-1.86-2.5-3.49-2.5
		c-1.72,0-3.15,1.17-3.57,2.76c-0.42-1.51-1.78-2.63-3.43-2.63c-1.97,0-3.57,1.6-3.57,3.57c0,1.49,0.91,2.76,2.2,3.3
		c-1.01,0.37-1.82,1.13-2.25,2.11c-0.53-1.12-1.59-1.92-2.86-2.1c1.61-0.25,2.84-1.63,2.84-3.3c0-1.85-1.5-3.36-3.36-3.36
		c-1.85,0-3.36,1.5-3.36,3.36c0,1.68,1.23,3.05,2.84,3.3c-1.56,0.22-2.82,1.38-3.14,2.91c-0.35-1.52-1.71-2.65-3.34-2.65
		c-1.9,0-3.43,1.54-3.43,3.43c0,1.63,1.13,2.98,2.65,3.34c-1.53,0.32-2.69,1.58-2.91,3.14c-0.25-1.61-1.63-2.84-3.3-2.84
		c-1.85,0-3.36,1.5-3.36,3.36c0,1.85,1.5,3.36,3.36,3.36c1.68,0,3.05-1.23,3.3-2.84c0.18,1.27,0.98,2.33,2.1,2.86
		c-0.98,0.43-1.74,1.25-2.11,2.25c-0.54-1.29-1.81-2.2-3.3-2.2c-1.97,0-3.57,1.6-3.57,3.57c0,1.64,1.12,3.01,2.63,3.43
		c-1.59,0.42-2.76,1.85-2.76,3.57c0,1.62,1.05,2.98,2.5,3.49c-1.46,0.5-2.52,1.87-2.52,3.51c0,1.66,1.09,3.04,2.58,3.53
		c-1.46,0.48-2.53,1.84-2.53,3.47c0,1.76,1.24,3.22,2.89,3.58c-1.56,0.36-2.73,1.75-2.73,3.42c0,1.94,1.57,3.51,3.51,3.51
		c1.53,0,2.81-0.98,3.3-2.34c0.35,1.12,1.19,2.02,2.27,2.45c-1.31,0.56-2.23,1.86-2.23,3.38c0,2.01,1.62,3.64,3.63,3.66
		c-1.83,0.02-3.3,1.5-3.3,3.33c0,1.84,1.49,3.34,3.34,3.34c1.84,0,3.34-1.49,3.34-3.34c0-1.83-1.48-3.31-3.3-3.33
		c1.47-0.01,2.73-0.9,3.3-2.16c0.41,0.99,1.21,1.78,2.21,2.17c-1.28,0.56-2.18,1.83-2.18,3.32c0,2,1.62,3.63,3.63,3.63
		c1.56,0,2.87-0.98,3.39-2.36c0.43,1.21,1.43,2.14,2.7,2.45c-1.44,0.4-2.5,1.71-2.5,3.28c0,1.88,1.53,3.41,3.41,3.41
		c1.89,0,3.41-1.53,3.41-3.41c0-1.57-1.06-2.87-2.5-3.28c1.11-0.27,2.02-1.02,2.52-2.03c0.45,0.94,1.24,1.66,2.23,2.02
		c-1.3,0.53-2.22,1.8-2.22,3.28c0,1.96,1.59,3.55,3.55,3.55c1.75,0,3.2-1.27,3.49-2.94c0.29,1.68,1.75,2.95,3.51,2.95
		c1.83,0,3.32-1.38,3.53-3.15c0.21,1.74,1.67,3.09,3.47,3.09c1.94,0,3.51-1.57,3.51-3.51c0-1.5-0.95-2.77-2.27-3.28
		c1.05-0.35,1.91-1.12,2.36-2.13c0.52,1.1,1.55,1.9,2.78,2.11c-1.56,0.29-2.74,1.65-2.74,3.29c0,1.85,1.5,3.36,3.36,3.36
		c1.85,0,3.36-1.5,3.36-3.36c0-1.64-1.18-3-2.74-3.29c1.45-0.24,2.6-1.3,2.99-2.69c0.44,1.47,1.78,2.54,3.39,2.54
		c1.96,0,3.55-1.59,3.55-3.55c0-1.54-0.98-2.83-2.35-3.33c1.17-0.38,2.08-1.3,2.47-2.46c0.49,1.36,1.79,2.34,3.33,2.34
		c1.96,0,3.55-1.59,3.55-3.55c0-1.61-1.08-2.95-2.54-3.39c1.39-0.39,2.45-1.54,2.69-2.99c0.29,1.56,1.65,2.73,3.29,2.73
		c1.85,0,3.36-1.5,3.36-3.36c0-1.85-1.5-3.36-3.36-3.36c-1.64,0-3,1.18-3.29,2.73c-0.21-1.24-1.01-2.26-2.11-2.78
		c1.01-0.45,1.78-1.3,2.13-2.36c0.5,1.33,1.77,2.27,3.27,2.27c1.94,0,3.51-1.57,3.51-3.51c0-1.79-1.35-3.26-3.09-3.47
		C218.8,102.65,220.18,101.16,220.18,99.34z M149.96,86.71c0.32,0.88,0.94,1.6,1.74,2.05c-0.77,0.42-1.39,1.08-1.76,1.88
		c-0.48-0.92-1.31-1.61-2.33-1.88C148.67,88.48,149.54,87.72,149.96,86.71z M149.93,101.09c0.35,0.74,0.91,1.36,1.61,1.78
		c-0.71,0.43-1.28,1.07-1.61,1.83c-0.43-0.87-1.2-1.53-2.13-1.84C148.72,102.57,149.48,101.93,149.93,101.09z M147.87,95.83
		c0.9-0.31,1.64-0.96,2.07-1.79c0.34,0.74,0.89,1.36,1.58,1.78c-0.69,0.42-1.24,1.03-1.59,1.77
		C149.49,96.77,148.76,96.14,147.87,95.83z M149.96,112.16c-0.4-1.12-1.34-1.98-2.51-2.25c1.1-0.24,2-0.97,2.49-1.95
		c0.37,0.85,1.03,1.54,1.85,1.97C150.92,110.41,150.26,111.2,149.96,112.16z M157,118.82c-0.38-0.84-1.06-1.51-1.91-1.87
		c0.79-0.31,1.44-0.87,1.88-1.58c0.37,0.67,0.92,1.23,1.59,1.61C157.86,117.41,157.31,118.05,157,118.82z M156.95,101.82
		c0.28,0.41,0.63,0.77,1.03,1.07c-0.39,0.31-0.74,0.67-1.01,1.09c-0.32-0.45-0.72-0.82-1.19-1.11
		C156.23,102.59,156.63,102.24,156.95,101.82z M155.8,95.82c0.45-0.28,0.84-0.64,1.16-1.07c0.27,0.41,0.61,0.76,0.99,1.06
		c-0.38,0.3-0.73,0.64-1,1.04C156.63,96.44,156.25,96.09,155.8,95.82z M156.95,89.93c-0.35-0.48-0.81-0.88-1.34-1.16
		c0.54-0.31,1.01-0.74,1.36-1.26c0.29,0.49,0.66,0.91,1.11,1.25C157.64,89.08,157.25,89.47,156.95,89.93z M156.97,108.69
		c0.31,0.49,0.71,0.91,1.19,1.24c-0.49,0.36-0.89,0.83-1.19,1.36c-0.35-0.57-0.85-1.04-1.44-1.36
		C156.1,109.63,156.6,109.21,156.97,108.69z M156.97,83.19c-0.42-0.64-1.01-1.15-1.72-1.46c0.74-0.35,1.34-0.94,1.72-1.66
		c0.31,0.67,0.8,1.25,1.41,1.66C157.8,82.1,157.32,82.6,156.97,83.19z M156.97,76.64c-0.51-0.98-1.42-1.71-2.53-1.95
		c1.27-0.3,2.26-1.29,2.56-2.55c0.24,1.11,0.97,2.02,1.95,2.53C158.07,75.07,157.38,75.77,156.97,76.64z M164.03,72.95
		c0.31,0.71,0.82,1.3,1.46,1.72c-0.59,0.35-1.09,0.83-1.46,1.41c-0.41-0.61-0.99-1.09-1.66-1.41
		C163.09,74.29,163.68,73.69,164.03,72.95z M163.99,102.27c0.18,0.22,0.37,0.43,0.59,0.61c-0.22,0.19-0.41,0.4-0.59,0.63
		c-0.2-0.23-0.42-0.44-0.66-0.63C163.57,102.7,163.79,102.5,163.99,102.27z M163.36,95.82c0.23-0.18,0.44-0.38,0.63-0.6
		c0.17,0.22,0.35,0.41,0.56,0.6c-0.2,0.18-0.39,0.38-0.56,0.59C163.8,96.19,163.59,95.99,163.36,95.82z M163.99,89.47
		c-0.23-0.26-0.48-0.51-0.76-0.71c0.29-0.22,0.55-0.48,0.78-0.76c0.2,0.28,0.44,0.52,0.7,0.75C164.44,88.96,164.2,89.2,163.99,89.47
		z M163.99,109.15c0.23,0.3,0.49,0.56,0.78,0.8c-0.29,0.25-0.55,0.52-0.77,0.83c-0.24-0.32-0.53-0.6-0.85-0.84
		C163.47,109.71,163.74,109.44,163.99,109.15z M164,82.7c-0.3-0.38-0.66-0.71-1.07-0.97c0.43-0.29,0.81-0.67,1.1-1.1
		c0.26,0.41,0.59,0.77,0.97,1.07C164.62,81.98,164.28,82.32,164,82.7z M164,115.88c0.31,0.44,0.68,0.81,1.12,1.12
		c-0.45,0.34-0.82,0.77-1.1,1.27c-0.32-0.52-0.75-0.96-1.27-1.29C163.24,116.7,163.66,116.33,164,115.88z M164.04,126.05
		c-0.34-0.92-1.04-1.66-1.94-2.05c0.8-0.32,1.47-0.89,1.92-1.62c0.4,0.7,0.98,1.27,1.69,1.64
		C164.94,124.47,164.34,125.19,164.04,126.05z M171.08,125.62c-0.33-0.67-0.85-1.23-1.5-1.61c0.59-0.31,1.09-0.74,1.47-1.27
		c0.36,0.53,0.84,0.96,1.39,1.29C171.86,124.42,171.39,124.98,171.08,125.62z M171.03,102.61c0.09,0.1,0.18,0.2,0.28,0.29
		c-0.1,0.09-0.18,0.2-0.27,0.3c-0.1-0.11-0.21-0.21-0.33-0.31C170.83,102.79,170.94,102.71,171.03,102.61z M170.75,95.81
		c0.1-0.09,0.2-0.18,0.29-0.28c0.08,0.09,0.15,0.18,0.24,0.27c-0.09,0.08-0.17,0.17-0.25,0.27
		C170.95,95.98,170.85,95.9,170.75,95.81z M171.05,89.15c-0.14-0.15-0.29-0.28-0.45-0.4c0.16-0.14,0.31-0.29,0.45-0.45
		c0.13,0.16,0.26,0.31,0.4,0.45C171.31,88.87,171.18,89.01,171.05,89.15z M171.05,109.47c0.15,0.18,0.32,0.34,0.49,0.49
		c-0.18,0.16-0.33,0.34-0.48,0.53c-0.16-0.2-0.34-0.37-0.53-0.54C170.71,109.79,170.89,109.64,171.05,109.47z M171.05,82.4
		c-0.22-0.26-0.47-0.49-0.75-0.7c0.29-0.23,0.54-0.48,0.76-0.77c0.2,0.28,0.45,0.53,0.71,0.76C171.5,81.9,171.26,82.13,171.05,82.4z
		 M171.06,116.17c0.25,0.31,0.53,0.59,0.85,0.83c-0.32,0.26-0.61,0.56-0.85,0.9c-0.25-0.35-0.55-0.65-0.88-0.9
		C170.51,116.77,170.8,116.48,171.06,116.17z M171.06,75.78c-0.34-0.45-0.76-0.83-1.25-1.11c0.52-0.34,0.95-0.81,1.26-1.36
		c0.29,0.53,0.68,0.98,1.16,1.34C171.78,74.95,171.38,75.34,171.06,75.78z M171.07,69.4c-0.46-0.8-1.18-1.42-2.05-1.74
		c1.01-0.42,1.77-1.29,2.06-2.35c0.27,1.02,0.96,1.86,1.88,2.33C172.15,68.01,171.49,68.63,171.07,69.4z M178.13,65.57
		c0.31,0.89,0.94,1.62,1.75,2.06c-0.74,0.35-1.35,0.9-1.77,1.59c-0.42-0.69-1.04-1.24-1.78-1.58
		C177.17,67.21,177.82,66.47,178.13,65.57z M178.1,102.79c0.04,0.04,0.09,0.08,0.13,0.12c-0.04,0.04-0.08,0.09-0.12,0.14
		c-0.05-0.05-0.09-0.1-0.14-0.15C178.02,102.86,178.06,102.83,178.1,102.79z M178.01,95.8c0.03-0.03,0.07-0.07,0.1-0.1
		c0.03,0.03,0.05,0.07,0.08,0.1c-0.03,0.03-0.06,0.05-0.08,0.08C178.07,95.85,178.04,95.83,178.01,95.8z M178.1,88.98
		c-0.08-0.09-0.18-0.16-0.27-0.24c0.1-0.09,0.19-0.19,0.28-0.29c0.08,0.09,0.16,0.19,0.25,0.28
		C178.28,88.81,178.19,88.89,178.1,88.98z M178.12,109.62c0.11,0.12,0.23,0.23,0.36,0.34c-0.13,0.12-0.24,0.26-0.36,0.39
		c-0.12-0.14-0.24-0.27-0.37-0.39C177.88,109.85,178,109.74,178.12,109.62z M178.12,82.24c-0.18-0.2-0.38-0.39-0.6-0.56
		c0.22-0.19,0.42-0.4,0.6-0.63c0.18,0.23,0.37,0.44,0.59,0.63C178.49,81.86,178.3,82.04,178.12,82.24z M178.12,116.31
		c0.22,0.26,0.46,0.5,0.74,0.7c-0.27,0.23-0.52,0.48-0.72,0.77c-0.21-0.29-0.47-0.55-0.75-0.78
		C177.65,116.8,177.9,116.57,178.12,116.31z M178.12,75.64c-0.3-0.38-0.65-0.73-1.06-0.99c0.43-0.31,0.79-0.7,1.07-1.16
		c0.27,0.45,0.62,0.83,1.04,1.15C178.76,74.92,178.41,75.26,178.12,75.64z M178.13,122.86c0.34,0.47,0.76,0.86,1.26,1.16
		c-0.53,0.37-0.96,0.87-1.27,1.44c-0.31-0.57-0.74-1.07-1.28-1.43C177.35,123.73,177.79,123.34,178.13,122.86z M178.13,133.7
		c-0.21-1.22-1.04-2.22-2.15-2.67c0.93-0.33,1.68-1,2.14-1.86c0.45,0.85,1.19,1.52,2.1,1.87
		C179.14,131.51,178.34,132.5,178.13,133.7z M185.17,65.5c0.31,0.93,0.97,1.69,1.84,2.13c-0.77,0.34-1.4,0.9-1.83,1.61
		c-0.42-0.7-1.04-1.26-1.78-1.61C184.23,67.18,184.87,66.42,185.17,65.5z M185.21,102.74c0.05,0.05,0.11,0.09,0.17,0.14
		c-0.07,0.06-0.13,0.13-0.19,0.19c-0.05-0.05-0.09-0.12-0.14-0.17C185.1,102.86,185.16,102.8,185.21,102.74z M185.09,95.8
		c0.04-0.04,0.07-0.09,0.11-0.13c0.05,0.05,0.1,0.09,0.15,0.14c-0.04,0.04-0.09,0.07-0.14,0.12
		C185.17,95.89,185.13,95.84,185.09,95.8z M185.2,89.01c-0.09-0.1-0.19-0.19-0.29-0.28c0.1-0.1,0.19-0.21,0.28-0.31
		c0.1,0.11,0.2,0.22,0.31,0.33C185.4,88.83,185.29,88.92,185.2,89.01z M185.19,109.59c0.13,0.13,0.26,0.25,0.41,0.37
		c-0.15,0.13-0.28,0.27-0.41,0.42c-0.12-0.15-0.25-0.29-0.38-0.42C184.94,109.84,185.07,109.72,185.19,109.59z M185.19,82.28
		c-0.19-0.21-0.39-0.41-0.61-0.59c0.23-0.2,0.43-0.42,0.61-0.66c0.19,0.24,0.4,0.46,0.63,0.66
		C185.59,81.86,185.38,82.06,185.19,82.28z M185.19,116.28c0.23,0.27,0.48,0.51,0.77,0.72c-0.29,0.24-0.56,0.51-0.78,0.81
		c-0.21-0.3-0.47-0.56-0.75-0.8C184.71,116.8,184.96,116.55,185.19,116.28z M185.19,75.67c-0.3-0.4-0.65-0.75-1.07-1.03
		c0.42-0.32,0.78-0.71,1.05-1.17c0.29,0.47,0.66,0.87,1.11,1.19C185.86,74.94,185.49,75.28,185.19,75.67z M185.17,122.83
		c0.35,0.48,0.8,0.88,1.32,1.18c-0.56,0.36-1.01,0.87-1.33,1.47c-0.3-0.59-0.74-1.09-1.28-1.46
		C184.4,123.71,184.83,123.31,185.17,122.83z M185.17,133.89c-0.15-1.28-0.97-2.36-2.11-2.85c0.92-0.35,1.66-1.03,2.11-1.89
		c0.47,0.89,1.26,1.57,2.23,1.89C186.2,131.49,185.33,132.58,185.17,133.89z M192.23,125.73c-0.31-0.7-0.82-1.29-1.46-1.71
		c0.58-0.34,1.08-0.8,1.45-1.36c0.4,0.59,0.96,1.06,1.61,1.37C193.14,124.41,192.57,125,192.23,125.73z M192.26,102.5
		c0.13,0.14,0.27,0.26,0.42,0.38c-0.15,0.13-0.29,0.26-0.42,0.4c-0.12-0.14-0.23-0.28-0.37-0.4
		C192.02,102.76,192.14,102.64,192.26,102.5z M191.92,95.82c0.12-0.12,0.23-0.24,0.34-0.37c0.12,0.13,0.25,0.25,0.39,0.37
		c-0.14,0.11-0.27,0.23-0.39,0.36C192.15,96.05,192.04,95.93,191.92,95.82z M192.26,89.24c-0.15-0.18-0.31-0.34-0.49-0.49
		c0.17-0.16,0.33-0.34,0.48-0.52c0.16,0.19,0.34,0.37,0.54,0.53C192.6,88.91,192.42,89.06,192.26,89.24z M192.26,109.37
		c0.19,0.21,0.39,0.4,0.62,0.57c-0.23,0.19-0.44,0.4-0.63,0.63c-0.17-0.22-0.36-0.43-0.57-0.62
		C191.89,109.78,192.08,109.59,192.26,109.37z M192.24,82.47c-0.23-0.29-0.5-0.56-0.8-0.78c0.29-0.25,0.56-0.52,0.78-0.84
		c0.24,0.32,0.52,0.61,0.84,0.85C192.76,81.92,192.49,82.18,192.24,82.47z M192.24,116.08c0.28,0.34,0.6,0.65,0.97,0.9
		c-0.38,0.28-0.72,0.61-0.99,1.01c-0.25-0.38-0.56-0.71-0.91-0.99C191.67,116.74,191.98,116.43,192.24,116.08z M192.23,75.86
		c-0.33-0.47-0.75-0.88-1.24-1.19c0.52-0.37,0.94-0.86,1.24-1.43c0.33,0.59,0.79,1.08,1.36,1.44
		C193.06,74.97,192.59,75.37,192.23,75.86z M192.23,69.48c-0.43-0.82-1.11-1.48-1.96-1.85c0.98-0.49,1.71-1.39,1.95-2.48
		c0.27,1.17,1.13,2.11,2.25,2.51C193.5,67.96,192.71,68.62,192.23,69.48z M199.25,72.79c0.36,0.85,1.03,1.53,1.87,1.91
		c-0.77,0.32-1.41,0.87-1.84,1.56c-0.38-0.67-0.94-1.21-1.61-1.59C198.38,74.23,198.94,73.58,199.25,72.79z M199.31,102.12
		c0.24,0.28,0.5,0.54,0.8,0.75c-0.31,0.22-0.57,0.49-0.81,0.78c-0.21-0.29-0.45-0.54-0.72-0.77
		C198.85,102.66,199.1,102.41,199.31,102.12z M198.61,95.82c0.26-0.22,0.49-0.46,0.69-0.73c0.23,0.28,0.49,0.53,0.78,0.75
		c-0.29,0.21-0.54,0.45-0.77,0.73C199.11,96.28,198.87,96.04,198.61,95.82z M199.3,89.6c-0.24-0.32-0.52-0.6-0.83-0.85
		c0.31-0.26,0.6-0.55,0.83-0.88c0.26,0.34,0.56,0.64,0.9,0.88C199.86,88.99,199.57,89.28,199.3,89.6z M199.3,109.01
		c0.28,0.35,0.61,0.66,0.99,0.91c-0.39,0.27-0.73,0.61-1.01,0.99c-0.25-0.37-0.56-0.69-0.9-0.97
		C198.73,109.68,199.04,109.37,199.3,109.01z M199.3,82.82c-0.3-0.44-0.68-0.82-1.12-1.12c0.44-0.34,0.81-0.76,1.09-1.25
		c0.33,0.52,0.77,0.95,1.29,1.27C200.07,82,199.64,82.37,199.3,82.82z M199.28,115.74c0.37,0.51,0.86,0.93,1.42,1.23
		c-0.6,0.34-1.1,0.84-1.44,1.44c-0.3-0.56-0.71-1.05-1.23-1.43C198.54,116.66,198.96,116.23,199.28,115.74z M199.24,126.31
		c-0.28-0.98-0.94-1.8-1.82-2.28c0.79-0.38,1.44-1.01,1.85-1.79c0.47,0.83,1.23,1.45,2.15,1.75
		C200.37,124.37,199.56,125.23,199.24,126.31z M206.3,79.8c0.39,0.89,1.13,1.59,2.05,1.94c-0.86,0.3-1.57,0.9-2.03,1.67
		c-0.37-0.71-0.94-1.3-1.64-1.69C205.41,81.27,205.98,80.61,206.3,79.8z M206.32,101.59c0.37,0.54,0.88,0.97,1.46,1.28
		c-0.59,0.32-1.1,0.77-1.47,1.33c-0.3-0.52-0.7-0.97-1.18-1.32C205.61,102.53,206.01,102.09,206.32,101.59z M205.17,95.83
		c0.47-0.34,0.86-0.78,1.16-1.29c0.36,0.54,0.86,0.97,1.44,1.28c-0.58,0.3-1.08,0.73-1.44,1.27
		C206.02,96.59,205.63,96.17,205.17,95.83z M206.33,90.15c-0.33-0.55-0.76-1.03-1.29-1.39c0.54-0.38,0.97-0.89,1.27-1.47
		c0.38,0.64,0.94,1.16,1.61,1.5C207.28,89.09,206.73,89.55,206.33,90.15z M206.32,108.47c0.41,0.64,1.01,1.15,1.71,1.46
		c-0.73,0.34-1.32,0.91-1.7,1.61c-0.31-0.65-0.78-1.21-1.37-1.61C205.52,109.55,205.98,109.05,206.32,108.47z M206.29,119.12
		c-0.3-0.92-0.93-1.68-1.75-2.15c0.78-0.41,1.41-1.05,1.79-1.85c0.48,0.88,1.29,1.54,2.28,1.81
		C207.53,117.26,206.67,118.07,206.29,119.12z M213.33,93.68c0.45,1.11,1.46,1.94,2.67,2.15c-1.2,0.21-2.19,1-2.66,2.08
		c-0.35-0.91-1.02-1.65-1.87-2.1C212.33,95.36,212.99,94.6,213.33,93.68z M213.34,105.09c-0.32-0.96-1-1.76-1.89-2.23
		c0.86-0.45,1.54-1.19,1.89-2.11c0.5,1.14,1.57,1.95,2.85,2.1C214.88,103.02,213.79,103.9,213.34,105.09z"/>
	<path d="M223.61,96.25c-1.7,0-3.08,1.38-3.08,3.08c0,1.7,1.38,3.08,3.08,3.08c1.7,0,3.08-1.38,3.08-3.08
		C226.69,97.63,225.31,96.25,223.61,96.25z"/>
	<path d="M230.6,96.82c-1.39,0-2.52,1.13-2.52,2.52c0,1.39,1.13,2.52,2.52,2.52c1.39,0,2.52-1.13,2.52-2.52
		C233.13,97.95,232,96.82,230.6,96.82z"/>
	<path d="M237.6,97.42c-1.06,0-1.92,0.86-1.92,1.92c0,1.06,0.86,1.92,1.92,1.92c1.06,0,1.92-0.86,1.92-1.92
		C239.52,98.28,238.66,97.42,237.6,97.42z"/>
	<path d="M244.59,98.1c-0.69,0-1.24,0.56-1.24,1.24c0,0.69,0.55,1.24,1.24,1.24c0.69,0,1.24-0.56,1.24-1.24
		C245.83,98.65,245.28,98.1,244.59,98.1z"/>
	<path d="M125.68,104.26c-1.15,0-2.08,0.93-2.08,2.08c0,1.15,0.93,2.08,2.08,2.08c1.15,0,2.08-0.93,2.08-2.08
		C127.76,105.19,126.83,104.26,125.68,104.26z"/>
	<path d="M132.68,103.68c-1.47,0-2.66,1.19-2.66,2.66c0,1.47,1.19,2.66,2.66,2.66c1.47,0,2.66-1.19,2.66-2.66
		C135.33,104.86,134.14,103.68,132.68,103.68z"/>
	<path d="M139.67,103.15c-1.76,0-3.18,1.42-3.18,3.18c0,1.76,1.42,3.18,3.18,3.18c1.76,0,3.18-1.42,3.18-3.18
		C142.85,104.58,141.43,103.15,139.67,103.15z"/>
	<path d="M223.61,103.33c-1.66,0-3.01,1.35-3.01,3.01c0,1.66,1.35,3.01,3.01,3.01c1.66,0,3.01-1.35,3.01-3.01
		C226.62,104.67,225.27,103.33,223.61,103.33z"/>
	<path d="M230.6,103.87c-1.36,0-2.46,1.1-2.46,2.46c0,1.36,1.1,2.46,2.46,2.46s2.46-1.1,2.46-2.46
		C233.07,104.97,231.97,103.87,230.6,103.87z"/>
	<path d="M237.6,104.47c-1.03,0-1.86,0.83-1.86,1.86s0.83,1.86,1.86,1.86c1.03,0,1.86-0.83,1.86-1.86S238.63,104.47,237.6,104.47z"
		/>
	<path d="M244.59,105.17c-0.64,0-1.16,0.52-1.16,1.16c0,0.64,0.52,1.16,1.16,1.16c0.64,0,1.16-0.52,1.16-1.16
		C245.76,105.69,245.23,105.17,244.59,105.17z"/>
	<path d="M125.68,111.39c-1.07,0-1.94,0.87-1.94,1.94c0,1.07,0.87,1.94,1.94,1.94c1.07,0,1.94-0.87,1.94-1.94
		C127.62,112.26,126.75,111.39,125.68,111.39z"/>
	<path d="M132.68,110.8c-1.39,0-2.52,1.13-2.52,2.52c0,1.39,1.13,2.52,2.52,2.52c1.39,0,2.52-1.13,2.52-2.52
		C135.2,111.93,134.07,110.8,132.68,110.8z"/>
	<path d="M139.67,110.26c-1.69,0-3.06,1.37-3.06,3.06c0,1.69,1.37,3.06,3.06,3.06c1.69,0,3.06-1.37,3.06-3.06
		C142.74,111.63,141.36,110.26,139.67,110.26z"/>
	<path d="M223.61,110.46c-1.59,0-2.87,1.29-2.87,2.87c0,1.58,1.29,2.87,2.87,2.87c1.59,0,2.87-1.29,2.87-2.87
		C226.48,111.74,225.2,110.46,223.61,110.46z"/>
	<path d="M230.6,110.98c-1.3,0-2.35,1.05-2.35,2.35c0,1.3,1.05,2.35,2.35,2.35c1.3,0,2.35-1.05,2.35-2.35
		C232.95,112.03,231.9,110.98,230.6,110.98z"/>
	<path d="M237.6,111.6c-0.95,0-1.73,0.77-1.73,1.73c0,0.95,0.77,1.73,1.73,1.73c0.95,0,1.73-0.77,1.73-1.73
		C239.32,112.37,238.55,111.6,237.6,111.6z"/>
	<path d="M244.59,112.28c-0.58,0-1.05,0.47-1.05,1.05c0,0.58,0.47,1.05,1.05,1.05c0.58,0,1.05-0.47,1.05-1.05
		C245.64,112.75,245.17,112.28,244.59,112.28z"/>
	<path d="M251.59,113c-0.18,0-0.33,0.15-0.33,0.33c0,0.18,0.15,0.33,0.33,0.33c0.18,0,0.33-0.15,0.33-0.33
		C251.91,113.14,251.77,113,251.59,113z"/>
	<path d="M125.68,118.6c-0.95,0-1.73,0.77-1.73,1.73c0,0.95,0.77,1.73,1.73,1.73c0.95,0,1.73-0.77,1.73-1.73
		C127.41,119.37,126.63,118.6,125.68,118.6z"/>
	<path d="M132.68,118.01c-1.27,0-2.31,1.03-2.31,2.31c0,1.27,1.03,2.31,2.31,2.31c1.27,0,2.31-1.03,2.31-2.31
		C134.98,119.05,133.95,118.01,132.68,118.01z"/>
	<path d="M139.67,117.49c-1.56,0-2.83,1.27-2.83,2.83s1.27,2.83,2.83,2.83s2.83-1.27,2.83-2.83S141.23,117.49,139.67,117.49z"/>
	<path d="M146.67,117.04c-1.81,0-3.28,1.47-3.28,3.28c0,1.81,1.47,3.28,3.28,3.28c1.81,0,3.28-1.47,3.28-3.28
		C149.94,118.51,148.48,117.04,146.67,117.04z"/>
	<path d="M216.61,117.2c-1.72,0-3.12,1.4-3.12,3.12c0,1.72,1.4,3.12,3.12,3.12c1.72,0,3.12-1.4,3.12-3.12
		C219.73,118.6,218.34,117.2,216.61,117.2z"/>
	<path d="M223.61,117.66c-1.47,0-2.66,1.19-2.66,2.66c0,1.47,1.19,2.66,2.66,2.66c1.47,0,2.66-1.19,2.66-2.66
		C226.27,118.85,225.08,117.66,223.61,117.66z"/>
	<path d="M230.6,118.19c-1.18,0-2.13,0.96-2.13,2.13c0,1.18,0.96,2.13,2.13,2.13c1.18,0,2.13-0.96,2.13-2.13
		C232.74,119.14,231.78,118.19,230.6,118.19z"/>
	<path d="M237.6,118.79c-0.85,0-1.53,0.69-1.53,1.53c0,0.85,0.69,1.53,1.53,1.53c0.85,0,1.53-0.69,1.53-1.53
		C239.13,119.48,238.44,118.79,237.6,118.79z"/>
	<path d="M244.59,119.45c-0.48,0-0.87,0.39-0.87,0.87c0,0.48,0.39,0.87,0.87,0.87s0.87-0.39,0.87-0.87
		C245.46,119.84,245.07,119.45,244.59,119.45z"/>
	<path d="M251.45,120.32c0,0.08,0.06,0.14,0.14,0.14c0.08,0,0.14-0.06,0.14-0.14c0-0.07-0.06-0.14-0.14-0.14
		C251.51,120.19,251.45,120.25,251.45,120.32z"/>
	<path d="M125.68,125.88c-0.79,0-1.44,0.64-1.44,1.44c0,0.79,0.64,1.44,1.44,1.44c0.79,0,1.44-0.64,1.44-1.44
		C127.12,126.52,126.47,125.88,125.68,125.88z"/>
	<path d="M132.68,125.3c-1.11,0-2.02,0.9-2.02,2.02c0,1.11,0.9,2.02,2.02,2.02c1.11,0,2.02-0.9,2.02-2.02
		C134.69,126.2,133.79,125.3,132.68,125.3z"/>
	<path d="M139.67,124.8c-1.39,0-2.52,1.13-2.52,2.52c0,1.39,1.13,2.52,2.52,2.52c1.39,0,2.52-1.13,2.52-2.52
		C142.19,125.92,141.06,124.8,139.67,124.8z"/>
	<path d="M146.67,124.35c-1.64,0-2.97,1.33-2.97,2.97c0,1.64,1.33,2.97,2.97,2.97c1.64,0,2.97-1.33,2.97-2.97
		C149.63,125.68,148.3,124.35,146.67,124.35z"/>
	<path d="M209.62,124.1c-1.78,0-3.22,1.44-3.22,3.22c0,1.78,1.44,3.22,3.22,3.22c1.78,0,3.22-1.44,3.22-3.22
		C212.84,125.54,211.4,124.1,209.62,124.1z"/>
	<path d="M216.61,124.48c-1.56,0-2.83,1.27-2.83,2.83c0,1.56,1.27,2.83,2.83,2.83c1.56,0,2.83-1.27,2.83-2.83
		C219.44,125.75,218.18,124.48,216.61,124.48z"/>
	<path d="M223.61,124.95c-1.31,0-2.37,1.06-2.37,2.37c0,1.31,1.06,2.37,2.37,2.37c1.31,0,2.37-1.06,2.37-2.37
		C225.98,126.01,224.92,124.95,223.61,124.95z"/>
	<path d="M230.6,125.47c-1.02,0-1.84,0.83-1.84,1.84c0,1.02,0.83,1.84,1.84,1.84c1.02,0,1.84-0.83,1.84-1.84
		C232.45,126.3,231.62,125.47,230.6,125.47z"/>
	<path d="M237.6,126.08c-0.69,0-1.24,0.56-1.24,1.24s0.56,1.24,1.24,1.24c0.69,0,1.24-0.56,1.24-1.24S238.28,126.08,237.6,126.08z"
		/>
	<path d="M244.59,126.73c-0.32,0-0.58,0.26-0.58,0.58c0,0.32,0.26,0.58,0.58,0.58c0.32,0,0.58-0.26,0.58-0.58
		C245.17,127,244.91,126.73,244.59,126.73z"/>
	<path d="M125.68,133.23c-0.6,0-1.09,0.49-1.09,1.09c0,0.6,0.49,1.09,1.09,1.09s1.09-0.49,1.09-1.09
		C126.77,133.71,126.28,133.23,125.68,133.23z"/>
	<path d="M132.68,132.68c-0.9,0-1.63,0.73-1.63,1.63c0,0.9,0.73,1.63,1.63,1.63c0.9,0,1.63-0.73,1.63-1.63
		C134.3,133.41,133.58,132.68,132.68,132.68z"/>
	<path d="M139.67,132.16c-1.19,0-2.15,0.96-2.15,2.15c0,1.19,0.96,2.15,2.15,2.15c1.19,0,2.15-0.96,2.15-2.15
		C141.82,133.12,140.86,132.16,139.67,132.16z"/>
	<path d="M146.67,131.75c-1.41,0-2.56,1.15-2.56,2.56s1.15,2.56,2.56,2.56c1.41,0,2.56-1.15,2.56-2.56S148.08,131.75,146.67,131.75z
		"/>
	<path d="M153.66,131.36c-1.63,0-2.95,1.32-2.95,2.95c0,1.63,1.32,2.95,2.95,2.95s2.95-1.32,2.95-2.95
		C156.61,132.68,155.29,131.36,153.66,131.36z"/>
	<path d="M160.66,131.09c-1.78,0-3.22,1.44-3.22,3.22c0,1.78,1.44,3.22,3.22,3.22c1.78,0,3.22-1.44,3.22-3.22
		C163.87,132.53,162.43,131.09,160.66,131.09z"/>
	<path d="M202.62,131.19c-1.72,0-3.12,1.4-3.12,3.12c0,1.72,1.4,3.12,3.12,3.12c1.72,0,3.12-1.4,3.12-3.12
		C205.75,132.59,204.35,131.19,202.62,131.19z"/>
	<path d="M209.62,131.48c-1.56,0-2.83,1.27-2.83,2.83s1.27,2.83,2.83,2.83s2.83-1.27,2.83-2.83S211.18,131.48,209.62,131.48z"/>
	<circle cx="216.61" cy="134.31" r="2.44"/>
	<path d="M223.61,132.31c-1.1,0-2,0.89-2,2s0.89,2,2,2c1.1,0,2-0.89,2-2S224.71,132.31,223.61,132.31z"/>
	<path d="M230.6,132.84c-0.81,0-1.47,0.66-1.47,1.47c0,0.81,0.66,1.47,1.47,1.47c0.81,0,1.47-0.66,1.47-1.47
		C232.08,133.5,231.42,132.84,230.6,132.84z"/>
	<path d="M237.6,133.44c-0.48,0-0.87,0.39-0.87,0.87c0,0.48,0.39,0.87,0.87,0.87c0.48,0,0.87-0.39,0.87-0.87
		C238.47,133.83,238.08,133.44,237.6,133.44z"/>
	<path d="M244.59,134.08c-0.13,0-0.23,0.1-0.23,0.23c0,0.13,0.1,0.23,0.23,0.23c0.13,0,0.23-0.1,0.23-0.23
		C244.82,134.18,244.72,134.08,244.59,134.08z"/>
	<path d="M118.65,141.31c0,0.02,0.02,0.04,0.04,0.04c0.02,0,0.04-0.02,0.04-0.04s-0.02-0.04-0.04-0.04
		C118.67,141.27,118.65,141.29,118.65,141.31z"/>
	<path d="M125.68,140.65c-0.36,0-0.66,0.29-0.66,0.66c0,0.36,0.3,0.66,0.66,0.66c0.36,0,0.66-0.29,0.66-0.66
		C126.34,140.94,126.05,140.65,125.68,140.65z"/>
	<path d="M132.68,140.1c-0.66,0-1.2,0.54-1.2,1.2c0,0.66,0.54,1.2,1.2,1.2c0.66,0,1.2-0.54,1.2-1.2
		C133.88,140.64,133.34,140.1,132.68,140.1z"/>
	<path d="M139.67,139.62c-0.93,0-1.69,0.76-1.69,1.69c0,0.93,0.76,1.69,1.69,1.69c0.93,0,1.69-0.76,1.69-1.69
		C141.36,140.37,140.6,139.62,139.67,139.62z"/>
	<path d="M146.67,139.17c-1.18,0-2.13,0.96-2.13,2.13s0.95,2.13,2.13,2.13c1.18,0,2.13-0.95,2.13-2.13S147.84,139.17,146.67,139.17z
		"/>
	<path d="M153.66,138.84c-1.36,0-2.46,1.1-2.46,2.46c0,1.36,1.1,2.46,2.46,2.46c1.36,0,2.46-1.1,2.46-2.46
		C156.12,139.95,155.02,138.84,153.66,138.84z"/>
	<circle cx="160.66" cy="141.31" r="2.73"/>
	<path d="M167.65,138.36c-1.63,0-2.95,1.32-2.95,2.95c0,1.63,1.32,2.95,2.95,2.95c1.63,0,2.95-1.32,2.95-2.95
		C170.6,139.68,169.28,138.36,167.65,138.36z"/>
	<path d="M174.65,138.24c-1.69,0-3.06,1.37-3.06,3.06c0,1.69,1.37,3.06,3.06,3.06c1.69,0,3.06-1.37,3.06-3.06
		C177.71,139.61,176.34,138.24,174.65,138.24z"/>
	<path d="M181.64,138.22c-1.7,0-3.08,1.38-3.08,3.08c0,1.7,1.38,3.08,3.08,3.08c1.7,0,3.08-1.38,3.08-3.08
		C184.72,139.6,183.34,138.22,181.64,138.22z"/>
	<path d="M188.64,138.3c-1.66,0-3.01,1.35-3.01,3.01s1.35,3.01,3.01,3.01c1.66,0,3.01-1.35,3.01-3.01S190.29,138.3,188.64,138.3z"/>
	<path d="M195.63,138.44c-1.59,0-2.87,1.29-2.87,2.87c0,1.59,1.28,2.87,2.87,2.87c1.59,0,2.87-1.29,2.87-2.87
		C198.5,139.72,197.21,138.44,195.63,138.44z"/>
	<path d="M202.62,138.65c-1.47,0-2.66,1.19-2.66,2.66c0,1.47,1.19,2.66,2.66,2.66c1.47,0,2.66-1.19,2.66-2.66
		C205.28,139.84,204.09,138.65,202.62,138.65z"/>
	<path d="M209.62,138.94c-1.31,0-2.37,1.06-2.37,2.37c0,1.31,1.06,2.37,2.37,2.37c1.31,0,2.37-1.06,2.37-2.37
		C211.98,140,210.93,138.94,209.62,138.94z"/>
	<path d="M216.61,139.31c-1.1,0-2,0.89-2,2c0,1.1,0.89,2,2,2c1.1,0,2-0.89,2-2C218.61,140.2,217.72,139.31,216.61,139.31z"/>
	<path d="M223.61,139.75c-0.86,0-1.55,0.69-1.55,1.55c0,0.86,0.7,1.55,1.55,1.55c0.86,0,1.55-0.69,1.55-1.55
		C225.16,140.45,224.47,139.75,223.61,139.75z"/>
	<path d="M230.6,140.28c-0.57,0-1.03,0.46-1.03,1.03c0,0.57,0.46,1.03,1.03,1.03c0.57,0,1.03-0.46,1.03-1.03
		C231.63,140.74,231.17,140.28,230.6,140.28z"/>
	<path d="M237.6,140.84c-0.26,0-0.47,0.21-0.47,0.46c0,0.26,0.21,0.47,0.47,0.47c0.26,0,0.47-0.21,0.47-0.47
		C238.06,141.05,237.86,140.84,237.6,140.84z"/>
	<path d="M125.51,148.3c0,0.1,0.08,0.17,0.17,0.17c0.1,0,0.17-0.08,0.17-0.17c0-0.1-0.08-0.17-0.17-0.17
		C125.58,148.13,125.51,148.2,125.51,148.3z"/>
	<path d="M132.68,147.58c-0.4,0-0.72,0.32-0.72,0.72c0,0.4,0.32,0.72,0.72,0.72c0.4,0,0.72-0.32,0.72-0.72
		C133.39,147.9,133.07,147.58,132.68,147.58z"/>
	<path d="M139.67,147.14c-0.64,0-1.16,0.52-1.16,1.16c0,0.64,0.52,1.16,1.16,1.16c0.64,0,1.16-0.52,1.16-1.16
		C140.83,147.66,140.31,147.14,139.67,147.14z"/>
	<path d="M146.67,146.69c-0.89,0-1.61,0.72-1.61,1.61c0,0.89,0.72,1.61,1.61,1.61s1.61-0.72,1.61-1.61
		C148.27,147.41,147.55,146.69,146.67,146.69z"/>
	<path d="M153.66,146.36c-1.07,0-1.94,0.87-1.94,1.94c0,1.07,0.87,1.94,1.94,1.94c1.07,0,1.94-0.87,1.94-1.94
		C155.6,147.23,154.73,146.36,153.66,146.36z"/>
	<path d="M160.66,146.09c-1.22,0-2.21,0.99-2.21,2.21c0,1.22,0.99,2.21,2.21,2.21c1.22,0,2.21-0.99,2.21-2.21
		C162.87,147.08,161.88,146.09,160.66,146.09z"/>
	<path d="M167.65,145.92c-1.32,0-2.39,1.07-2.39,2.39c0,1.32,1.07,2.39,2.39,2.39c1.32,0,2.39-1.07,2.39-2.39
		C170.04,146.98,168.97,145.92,167.65,145.92z"/>
	<path d="M174.65,145.82c-1.37,0-2.48,1.11-2.48,2.48s1.11,2.48,2.48,2.48c1.37,0,2.48-1.11,2.48-2.48S176.02,145.82,174.65,145.82z
		"/>
	<path d="M181.64,145.78c-1.39,0-2.52,1.13-2.52,2.52c0,1.39,1.13,2.52,2.52,2.52c1.39,0,2.52-1.13,2.52-2.52
		C184.16,146.91,183.03,145.78,181.64,145.78z"/>
	<path d="M188.64,145.84c-1.36,0-2.46,1.1-2.46,2.46c0,1.36,1.1,2.46,2.46,2.46s2.46-1.1,2.46-2.46
		C191.1,146.94,190,145.84,188.64,145.84z"/>
	<path d="M195.63,145.95c-1.3,0-2.35,1.05-2.35,2.35c0,1.3,1.05,2.35,2.35,2.35c1.3,0,2.35-1.05,2.35-2.35
		C197.98,147,196.93,145.95,195.63,145.95z"/>
	<path d="M202.62,146.17c-1.18,0-2.13,0.96-2.13,2.13c0,1.18,0.95,2.13,2.13,2.13c1.18,0,2.13-0.96,2.13-2.13
		C204.76,147.12,203.8,146.17,202.62,146.17z"/>
	<path d="M209.62,146.46c-1.02,0-1.84,0.83-1.84,1.84c0,1.02,0.83,1.84,1.84,1.84c1.02,0,1.84-0.82,1.84-1.84
		C211.46,147.28,210.64,146.46,209.62,146.46z"/>
	<path d="M216.61,146.83c-0.81,0-1.47,0.66-1.47,1.47c0,0.81,0.66,1.47,1.47,1.47c0.81,0,1.47-0.66,1.47-1.47
		C218.09,147.49,217.43,146.83,216.61,146.83z"/>
	<path d="M223.61,147.27c-0.57,0-1.03,0.46-1.03,1.03c0,0.57,0.46,1.03,1.03,1.03c0.57,0,1.03-0.46,1.03-1.03
		C224.64,147.73,224.18,147.27,223.61,147.27z"/>
	<path d="M230.6,147.78c-0.29,0-0.52,0.23-0.52,0.52c0,0.29,0.23,0.52,0.52,0.52c0.29,0,0.52-0.23,0.52-0.52
		C231.13,148.01,230.89,147.78,230.6,147.78z"/>
	<path d="M132.54,155.3c0,0.08,0.06,0.14,0.14,0.14c0.08,0,0.14-0.06,0.14-0.14c0-0.08-0.06-0.14-0.14-0.14
		C132.6,155.16,132.54,155.22,132.54,155.3z"/>
	<path d="M139.67,154.68c-0.34,0-0.62,0.28-0.62,0.62c0,0.34,0.28,0.62,0.62,0.62c0.34,0,0.62-0.28,0.62-0.62
		C140.29,154.95,140.01,154.68,139.67,154.68z"/>
	<path d="M146.67,154.27c-0.57,0-1.03,0.46-1.03,1.03c0,0.57,0.46,1.03,1.03,1.03c0.57,0,1.03-0.46,1.03-1.03
		C147.69,154.73,147.23,154.27,146.67,154.27z"/>
	<path d="M153.66,153.94c-0.75,0-1.36,0.61-1.36,1.36c0,0.75,0.61,1.36,1.36,1.36c0.75,0,1.36-0.61,1.36-1.36
		C155.02,154.55,154.41,153.94,153.66,153.94z"/>
	<path d="M160.66,153.69c-0.89,0-1.61,0.72-1.61,1.61c0,0.89,0.72,1.61,1.61,1.61c0.89,0,1.61-0.72,1.61-1.61
		C162.26,154.41,161.54,153.69,160.66,153.69z"/>
	<path d="M167.65,153.51c-0.99,0-1.78,0.8-1.78,1.78c0,0.99,0.8,1.78,1.78,1.78c0.99,0,1.78-0.8,1.78-1.78
		C169.43,154.31,168.64,153.51,167.65,153.51z"/>
	<path d="M174.65,153.41c-1.04,0-1.88,0.84-1.88,1.88c0,1.04,0.84,1.88,1.88,1.88c1.04,0,1.88-0.84,1.88-1.88
		C176.53,154.26,175.68,153.41,174.65,153.41z"/>
	<path d="M181.64,153.38c-1.06,0-1.92,0.86-1.92,1.92c0,1.06,0.86,1.92,1.92,1.92c1.06,0,1.92-0.86,1.92-1.92
		C183.56,154.24,182.7,153.38,181.64,153.38z"/>
	<path d="M188.64,153.43c-1.03,0-1.86,0.83-1.86,1.86c0,1.03,0.83,1.86,1.86,1.86s1.86-0.83,1.86-1.86
		C190.5,154.27,189.66,153.43,188.64,153.43z"/>
	<path d="M195.63,153.57c-0.95,0-1.73,0.77-1.73,1.73c0,0.95,0.77,1.73,1.73,1.73c0.95,0,1.73-0.77,1.73-1.73
		C197.35,154.34,196.58,153.57,195.63,153.57z"/>
	<path d="M202.62,153.76c-0.85,0-1.53,0.69-1.53,1.53c0,0.85,0.69,1.53,1.53,1.53c0.85,0,1.53-0.69,1.53-1.53
		C204.16,154.45,203.47,153.76,202.62,153.76z"/>
	<path d="M209.62,154.05c-0.69,0-1.24,0.56-1.24,1.24c0,0.69,0.56,1.24,1.24,1.24c0.69,0,1.24-0.56,1.24-1.24
		C210.86,154.61,210.3,154.05,209.62,154.05z"/>
	<path d="M216.61,154.42c-0.48,0-0.87,0.39-0.87,0.87s0.39,0.87,0.87,0.87s0.87-0.39,0.87-0.87S217.09,154.42,216.61,154.42z"/>
	<path d="M223.61,154.83c-0.26,0-0.47,0.21-0.47,0.47s0.21,0.47,0.47,0.47c0.26,0,0.47-0.21,0.47-0.47S223.87,154.83,223.61,154.83z
		"/>
	<path d="M146.67,161.92c-0.2,0-0.37,0.16-0.37,0.37c0,0.2,0.16,0.37,0.37,0.37c0.2,0,0.37-0.17,0.37-0.37
		C147.03,162.09,146.87,161.92,146.67,161.92z"/>
	<path d="M153.66,161.61c-0.38,0-0.68,0.3-0.68,0.68c0,0.38,0.3,0.68,0.68,0.68s0.68-0.3,0.68-0.68
		C154.34,161.92,154.04,161.61,153.66,161.61z"/>
	<path d="M160.66,161.36c-0.51,0-0.93,0.42-0.93,0.93c0,0.51,0.42,0.93,0.93,0.93c0.51,0,0.93-0.42,0.93-0.93
		C161.59,161.78,161.17,161.36,160.66,161.36z"/>
	<circle cx="167.65" cy="162.29" r="1.11"/>
	<path d="M174.65,161.09c-0.66,0-1.2,0.54-1.2,1.2c0,0.66,0.54,1.2,1.2,1.2c0.66,0,1.2-0.54,1.2-1.2
		C175.85,161.63,175.31,161.09,174.65,161.09z"/>
	<path d="M181.64,161.05c-0.69,0-1.24,0.56-1.24,1.24c0,0.68,0.56,1.24,1.24,1.24c0.69,0,1.24-0.56,1.24-1.24
		C182.88,161.61,182.33,161.05,181.64,161.05z"/>
	<path d="M188.64,161.13c-0.64,0-1.16,0.52-1.16,1.16c0,0.64,0.52,1.16,1.16,1.16c0.64,0,1.16-0.52,1.16-1.16
		C189.8,161.65,189.28,161.13,188.64,161.13z"/>
	<path d="M195.63,161.24c-0.58,0-1.05,0.47-1.05,1.05c0,0.58,0.47,1.05,1.05,1.05c0.58,0,1.05-0.47,1.05-1.05
		C196.68,161.71,196.21,161.24,195.63,161.24z"/>
	<path d="M202.62,161.42c-0.48,0-0.87,0.39-0.87,0.87c0,0.48,0.39,0.87,0.87,0.87c0.48,0,0.87-0.39,0.87-0.87
		C203.5,161.81,203.11,161.42,202.62,161.42z"/>
	<path d="M209.62,161.71c-0.32,0-0.58,0.26-0.58,0.58c0,0.32,0.26,0.58,0.58,0.58c0.32,0,0.58-0.26,0.58-0.58
		C210.2,161.97,209.94,161.71,209.62,161.71z"/>
	<path d="M216.61,162.06c-0.13,0-0.23,0.1-0.23,0.23c0,0.13,0.1,0.23,0.23,0.23c0.13,0,0.23-0.1,0.23-0.23
		C216.84,162.16,216.74,162.06,216.61,162.06z"/>
	<path d="M160.66,169.05c-0.13,0-0.23,0.1-0.23,0.23c0,0.13,0.1,0.23,0.23,0.23c0.13,0,0.23-0.1,0.23-0.23
		C160.89,169.16,160.78,169.05,160.66,169.05z"/>
	<circle cx="167.65" cy="169.29" r="0.39"/>
	<path d="M174.65,168.8c-0.27,0-0.48,0.22-0.48,0.49c0,0.27,0.22,0.48,0.48,0.48c0.27,0,0.48-0.22,0.48-0.48
		C175.13,169.02,174.91,168.8,174.65,168.8z"/>
	<circle cx="181.64" cy="169.29" r="0.52"/>
	<path d="M188.64,168.82c-0.26,0-0.47,0.21-0.47,0.47c0,0.26,0.21,0.47,0.47,0.47c0.26,0,0.46-0.21,0.46-0.47
		C189.1,169.03,188.89,168.82,188.64,168.82z"/>
	<path d="M195.63,168.96c-0.18,0-0.33,0.15-0.33,0.33c0,0.18,0.15,0.33,0.33,0.33c0.18,0,0.33-0.15,0.33-0.33
		C195.96,169.1,195.81,168.96,195.63,168.96z"/>
	<path d="M202.49,169.29c0,0.08,0.06,0.14,0.14,0.14c0.07,0,0.14-0.06,0.14-0.14c0-0.08-0.06-0.14-0.14-0.14
		C202.55,169.15,202.49,169.21,202.49,169.29z"/>
	<polygon points="102.02,108.58 62.64,58.43 41.31,58.43 41.31,140.45 62.64,140.45 62.64,90.3 102.02,140.45 123.23,140.45 
		123.23,58.43 102.02,58.43 	"/>
	<path d="M292.51,58.42l-19.91,49.93l-19.8-49.93h-21.72c0.4-0.18,0.69-0.58,0.69-1.06c0-0.64-0.52-1.16-1.16-1.16
		c-0.64,0-1.16,0.52-1.16,1.16c0,0.47,0.28,0.87,0.69,1.06h-0.5l1.98,4.71c-0.28-0.23-0.62-0.38-1-0.38c-0.89,0-1.61,0.72-1.61,1.61
		c0,0.89,0.72,1.61,1.61,1.61c0.84,0,1.5-0.65,1.58-1.46l5.16,12.28c-0.77,0.12-1.36,0.76-1.36,1.56c0,0.89,0.72,1.61,1.61,1.61
		c0.36,0,0.67-0.14,0.94-0.34l5.07,12.06c-0.13,0.19-0.22,0.41-0.22,0.66c0,0.59,0.43,1.05,0.98,1.16l19.74,46.95h16.97l34.6-82.03
		H292.51z"/>
	<polygon points="341.13,58.42 309.91,140.45 332.65,140.45 352.77,82.68 373.13,140.45 395.64,140.45 364.42,58.42 	"/>
	<polygon points="429.65,67.97 435.94,67.97 435.94,65.32 429.65,65.32 429.65,60.82 436.17,60.82 436.17,58.17 426.83,58.17 
		426.83,76.88 429.65,76.88 	"/>
	<path d="M445.32,56.99l-9.26,19.89h3.04l2.08-4.54h8.01l1.96,4.54h3.09L445.32,56.99z M442.36,69.68l2.91-6.36l2.78,6.36H442.36z"
		/>
	<path d="M469.55,72.44c-0.46,0.39-0.9,0.72-1.32,0.99c-0.42,0.27-0.82,0.49-1.21,0.65c-0.69,0.32-1.54,0.48-2.53,0.48
		c-1.92,0-3.55-0.67-4.87-2.02c-1.33-1.35-1.99-3.01-1.99-4.97c0-1.99,0.66-3.67,1.99-5.04c1.32-1.38,2.94-2.07,4.86-2.07
		c1.75,0,3.43,0.68,5.07,2.05v-3.34c-1.57-0.91-3.19-1.37-4.87-1.37c-3.08,0-5.59,1.14-7.53,3.43c-1.58,1.87-2.36,3.99-2.36,6.37
		c0,2.66,0.94,4.93,2.82,6.81c1.89,1.87,4.17,2.8,6.85,2.8c1.78,0,3.47-0.46,5.09-1.37V72.44z"/>
	<path d="M486.96,58.17h-2.82v11.27c0,1.63-0.26,2.81-0.79,3.53c-0.78,1.07-1.89,1.61-3.32,1.61c-1.42,0-2.52-0.54-3.31-1.61
		c-0.53-0.74-0.79-1.92-0.79-3.53V58.17h-2.82v12.05c0,1.97,0.61,3.6,1.84,4.87c1.37,1.42,3.07,2.13,5.08,2.13
		c2.01,0,3.71-0.71,5.09-2.13c1.23-1.28,1.84-2.9,1.84-4.87V58.17z"/>
	<polygon points="499.77,74.22 494.27,74.22 494.27,58.17 491.45,58.17 491.45,76.88 499.77,76.88 	"/>
	<path d="M510.73,76.36c1.11-0.35,2.17-0.97,3.18-1.85c2.01-1.78,3.02-4.1,3.02-6.98c0-2.87-0.97-5.18-2.9-6.94
		c-0.95-0.87-2.02-1.49-3.19-1.85c-1.09-0.37-2.58-0.56-4.46-0.56h-3.93v18.71h3.88C508.23,76.88,509.69,76.7,510.73,76.36z
		 M505.28,60.82h1.27c2.41,0,4.23,0.57,5.47,1.71c1.37,1.28,2.06,2.94,2.06,4.99c0,2.04-0.69,3.69-2.08,4.96
		c-0.68,0.61-1.44,1.06-2.28,1.35c-0.84,0.27-1.89,0.4-3.16,0.4h-1.27V60.82z"/>
	<path d="M522.53,72.33h8.01l1.96,4.54h3.09l-8.93-19.89l-9.26,19.89h3.04L522.53,72.33z M526.62,63.32l2.78,6.36h-5.68
		L526.62,63.32z"/>
	<path d="M549.51,60.58c-0.95-0.87-2.02-1.49-3.19-1.85c-1.09-0.37-2.58-0.56-4.46-0.56h-3.93v18.71h3.88c1.9,0,3.36-0.17,4.4-0.52
		c1.11-0.35,2.17-0.97,3.18-1.85c2.01-1.78,3.02-4.1,3.02-6.98C552.41,64.65,551.44,62.34,549.51,60.58z M547.47,72.48
		c-0.68,0.61-1.44,1.06-2.28,1.35c-0.84,0.27-1.89,0.4-3.16,0.4h-1.27v-13.4h1.27c2.41,0,4.23,0.57,5.47,1.71
		c1.37,1.28,2.06,2.94,2.06,4.99C549.56,69.56,548.86,71.21,547.47,72.48z"/>
	<polygon points="555.96,76.88 566.28,76.88 566.28,74.22 558.78,74.22 558.78,67.97 566.06,67.97 566.06,65.32 558.78,65.32 
		558.78,60.82 566.28,60.82 566.28,58.17 555.96,58.17 	"/>
	<path d="M585.93,76.36c1.11-0.35,2.17-0.97,3.18-1.85c2.01-1.78,3.02-4.1,3.02-6.98c0-2.87-0.97-5.18-2.9-6.94
		c-0.95-0.87-2.02-1.49-3.19-1.85c-1.09-0.37-2.58-0.56-4.46-0.56h-3.93v18.71h3.88C583.43,76.88,584.89,76.7,585.93,76.36z
		 M580.47,60.82h1.27c2.41,0,4.23,0.57,5.47,1.71c1.37,1.28,2.06,2.94,2.06,4.99c0,2.04-0.69,3.69-2.08,4.96
		c-0.68,0.61-1.44,1.06-2.28,1.35c-0.84,0.27-1.89,0.4-3.16,0.4h-1.27V60.82z"/>
	<polygon points="606,74.22 598.5,74.22 598.5,67.97 605.78,67.97 605.78,65.32 598.5,65.32 598.5,60.82 606,60.82 606,58.17 
		595.67,58.17 595.67,76.88 606,76.88 	"/>
	<path d="M428.26,91.71c-1.58,1.87-2.36,3.99-2.36,6.37c0,2.66,0.94,4.93,2.82,6.81c1.89,1.87,4.17,2.8,6.85,2.8
		c1.78,0,3.47-0.46,5.09-1.37v-3.41c-0.46,0.39-0.9,0.72-1.31,0.99c-0.42,0.27-0.82,0.49-1.21,0.65c-0.7,0.32-1.54,0.48-2.53,0.48
		c-1.92,0-3.55-0.67-4.87-2.02c-1.33-1.35-1.99-3.01-1.99-4.97c0-1.99,0.66-3.67,1.99-5.04c1.32-1.38,2.94-2.07,4.86-2.07
		c1.75,0,3.43,0.68,5.07,2.05v-3.34c-1.57-0.91-3.19-1.37-4.87-1.37C432.71,88.28,430.2,89.42,428.26,91.71z"/>
	<rect x="444.22" y="88.64" width="2.82" height="18.71"/>
	<polygon points="456.7,84.65 459.15,86.96 461.02,85.51 456.7,81.62 452.45,85.51 454.29,86.96 	"/>
	<polygon points="451.54,107.35 461.86,107.35 461.86,104.7 454.36,104.7 454.36,98.44 461.65,98.44 461.65,95.79 454.36,95.79 
		454.36,91.29 461.86,91.29 461.86,88.64 451.54,88.64 	"/>
	<polygon points="479.22,101.64 465.57,87.37 465.57,107.35 468.4,107.35 468.4,94.25 482.04,108.49 482.04,88.64 479.22,88.64 	"/>
	<path d="M488.13,91.71c-1.58,1.87-2.36,3.99-2.36,6.37c0,2.66,0.94,4.93,2.82,6.81c1.89,1.87,4.17,2.8,6.85,2.8
		c1.78,0,3.47-0.46,5.09-1.37v-3.41c-0.46,0.39-0.9,0.72-1.31,0.99c-0.42,0.27-0.82,0.49-1.21,0.65c-0.7,0.32-1.54,0.48-2.53,0.48
		c-1.92,0-3.55-0.67-4.87-2.02c-1.33-1.35-1.99-3.01-1.99-4.97c0-1.99,0.66-3.67,1.99-5.04c1.32-1.38,2.94-2.07,4.86-2.07
		c1.75,0,3.43,0.68,5.07,2.05v-3.34c-1.57-0.91-3.19-1.37-4.87-1.37C492.57,88.28,490.07,89.42,488.13,91.71z"/>
	<rect x="504.09" y="88.64" width="2.82" height="18.71"/>
	<path d="M509.26,107.35h3.04l2.08-4.54h8.01l1.96,4.54h3.09l-8.93-19.89L509.26,107.35z M515.56,100.15l2.91-6.36l2.78,6.36H515.56
		z"/>
	<path d="M536.47,96.23l-1.87-0.76c-1.36-0.56-2.04-1.29-2.04-2.21c0-0.66,0.26-1.21,0.78-1.65c0.52-0.44,1.17-0.67,1.95-0.67
		c0.64,0,1.16,0.13,1.56,0.39c0.39,0.23,0.8,0.71,1.22,1.45l2.29-1.36c-1.21-2.1-2.9-3.15-5.05-3.15c-1.6,0-2.94,0.48-4.01,1.43
		c-1.07,0.95-1.61,2.12-1.61,3.53c0,2.08,1.28,3.67,3.84,4.75l1.81,0.75c0.47,0.2,0.87,0.41,1.21,0.64
		c0.34,0.22,0.62,0.46,0.83,0.71c0.21,0.25,0.37,0.53,0.47,0.84c0.1,0.3,0.15,0.64,0.15,1c0,0.91-0.29,1.65-0.87,2.24
		c-0.58,0.59-1.31,0.88-2.19,0.88c-1.12,0-1.96-0.4-2.55-1.21c-0.32-0.42-0.55-1.18-0.68-2.28l-2.86,0.63
		c0.26,1.75,0.91,3.1,1.95,4.06c1.06,0.96,2.4,1.44,4.02,1.44c1.71,0,3.15-0.57,4.3-1.7c1.15-1.12,1.72-2.55,1.72-4.27
		c0-1.28-0.35-2.37-1.05-3.25C539.1,97.59,537.99,96.84,536.47,96.23z"/>
	<polygon points="551.92,107.35 562.25,107.35 562.25,104.7 554.75,104.7 554.75,98.44 562.03,98.44 562.03,95.79 554.75,95.79 
		554.75,91.29 562.25,91.29 562.25,88.64 551.92,88.64 	"/>
	<polygon points="571.65,91.29 575.95,91.29 575.95,107.35 578.78,107.35 578.78,91.29 583.07,91.29 583.07,88.64 571.65,88.64 	"/>
	<polygon points="585.59,107.35 595.91,107.35 595.91,104.7 588.41,104.7 588.41,98.44 595.7,98.44 595.7,95.79 588.41,95.79 
		588.41,91.29 595.91,91.29 595.91,88.64 585.59,88.64 	"/>
	<path d="M601.05,91.71c-1.58,1.87-2.36,3.99-2.36,6.37c0,2.66,0.94,4.93,2.82,6.81c1.89,1.87,4.17,2.8,6.85,2.8
		c1.78,0,3.47-0.46,5.09-1.37v-3.41c-0.46,0.39-0.9,0.72-1.31,0.99c-0.42,0.27-0.82,0.49-1.21,0.65c-0.69,0.32-1.54,0.48-2.53,0.48
		c-1.92,0-3.55-0.67-4.87-2.02c-1.33-1.35-1.99-3.01-1.99-4.97c0-1.99,0.66-3.67,1.99-5.04c1.32-1.38,2.94-2.07,4.86-2.07
		c1.75,0,3.43,0.68,5.07,2.05v-3.34c-1.57-0.91-3.19-1.37-4.87-1.37C605.5,88.28,602.99,89.42,601.05,91.71z"/>
	<polygon points="630.66,101.64 617.01,87.37 617.01,107.35 619.84,107.35 619.84,94.25 633.48,108.49 633.48,88.64 630.66,88.64 	
		"/>
	<path d="M647.03,88.29c-2.7,0-5.01,0.95-6.93,2.84c-1.93,1.89-2.9,4.15-2.9,6.79c0,3,1.06,5.42,3.18,7.27
		c1.92,1.67,4.09,2.51,6.51,2.51c2.73,0,5.06-0.94,6.99-2.82c1.92-1.87,2.88-4.16,2.88-6.85c0-2.67-0.96-4.96-2.87-6.87
		C651.99,89.24,649.7,88.29,647.03,88.29z M651.89,103.01c-1.35,1.36-3.01,2.04-4.97,2.04c-1.81,0-3.41-0.67-4.79-2
		c-1.39-1.33-2.08-3.03-2.08-5.1c0-1.97,0.67-3.63,2.01-4.97c1.34-1.36,2.99-2.04,4.93-2.04c1.96,0,3.6,0.68,4.92,2.04
		c1.33,1.35,2,3.02,2,5.02C653.92,99.97,653.24,101.64,651.89,103.01z"/>
	<polygon points="663.14,88.64 660.32,88.64 660.32,107.35 668.64,107.35 668.64,104.7 663.14,104.7 	"/>
	<path d="M679.45,88.29c-2.7,0-5.01,0.95-6.93,2.84c-1.93,1.89-2.9,4.15-2.9,6.79c0,3,1.06,5.42,3.18,7.27
		c1.92,1.67,4.09,2.51,6.51,2.51c2.73,0,5.06-0.94,6.99-2.82c1.92-1.87,2.88-4.16,2.88-6.85c0-2.67-0.96-4.96-2.87-6.87
		C684.4,89.24,682.12,88.29,679.45,88.29z M684.31,103.01c-1.35,1.36-3.01,2.04-4.97,2.04c-1.81,0-3.41-0.67-4.79-2
		c-1.39-1.33-2.08-3.03-2.08-5.1c0-1.97,0.67-3.63,2.01-4.97c1.34-1.36,2.99-2.04,4.93-2.04c1.96,0,3.6,0.68,4.92,2.04
		c1.33,1.35,2,3.02,2,5.02C686.34,99.97,685.66,101.64,684.31,103.01z"/>
	<path d="M702.36,100.26h4.67c-0.13,1.32-0.75,2.45-1.85,3.39c-1.11,0.94-2.36,1.41-3.74,1.41c-1.63,0-3.15-0.63-4.54-1.88
		c-1.49-1.35-2.24-3.07-2.24-5.15c0-2.02,0.67-3.7,2.01-5.04c1.34-1.37,3-2.05,4.98-2.05c2.21,0,4.08,1.02,5.61,3.07l2.01-1.93
		c-1.17-1.34-2.36-2.31-3.58-2.91c-1.27-0.6-2.63-0.9-4.1-0.9c-2.72,0-5.03,0.95-6.93,2.85c-1.9,1.89-2.85,4.19-2.85,6.91
		c0,2.66,0.93,4.94,2.8,6.84c1.87,1.89,4.11,2.84,6.73,2.84c2.68,0,4.89-0.98,6.63-2.93c0.77-0.87,1.31-1.81,1.64-2.81
		c0.33-1.08,0.5-2.33,0.5-3.73v-0.62h-7.73V100.26z"/>
	<rect x="713.64" y="88.64" width="2.82" height="18.71"/>
	<path d="M728.07,87.46l-9.26,19.89h3.04l2.08-4.54h8.01l1.96,4.54h3.09L728.07,87.46z M725.12,100.15l2.91-6.36l2.78,6.36H725.12z"
		/>
</g>
</svg>
